<svg width="1440" height="763" viewBox="0 0 1440 763" fill="none" xmlns="http://www.w3.org/2000/svg">
<rect width="1439" height="549" fill="#0B275E"/>
<path d="M1439 678.808C1388.07 647.862 1322.99 653.53 1266.87 673.009C1210.75 692.489 1159.43 724.304 1103.64 744.68C1047.86 765.056 983.375 772.911 931.023 744.522C882.518 718.162 849.192 663.441 795.575 651.131C752.878 641.352 709.278 661.675 672.337 685.714C635.397 709.754 599.695 738.433 556.946 748.054C506.892 759.362 454.954 742.782 407.946 721.695C360.937 700.607 314.884 675.171 264.185 667.289C217.048 659.988 168.93 668.528 121.328 665.708C73.726 662.887 22.0971 644.62 -1.65904e-05 601.417L2.7665e-06 380L1435.02 380L1439 678.808Z" fill="#0B275E"/>
<g style="mix-blend-mode:screen" opacity="0.4">
<path d="M374.829 178.783C434.284 129.296 459.953 60.7835 500.261 0H0V196.882C28.4475 207.514 56.4574 220.664 85.2332 229.669C182.83 260.201 302.266 239.217 374.829 178.783Z" fill="white" fill-opacity="0.3"/>
</g>
<g style="mix-blend-mode:screen" opacity="0.4">
<path d="M1088.83 46.0948C1084.77 76.4528 1093.64 107.018 1114.02 132.846V132.846C1137.69 162.673 1175.04 183.907 1218.07 192.003C1248.49 197.756 1278.53 205.136 1310.39 206.36C1357.18 208.108 1408.49 217.027 1439.5 243.554V0H1085C1089.36 15.1022 1090.65 30.6651 1088.83 46.0948V46.0948Z" fill="white" fill-opacity="0.3"/>
</g>
</svg>
