<svg width="476" height="472" viewBox="0 0 476 472" fill="none" xmlns="http://www.w3.org/2000/svg">
<path d="M69.66 430.901C-23.22 377.271 -23.22 290.321 69.66 236.701C162.54 183.081 313.14 183.071 406.02 236.701C498.9 290.331 498.9 377.271 406.02 430.901C313.14 484.531 162.54 484.521 69.66 430.901Z" fill="#F0F0F0"/>
<path d="M195.51 441.021L53.71 359.091C48.18 355.891 48.18 350.671 53.71 347.471L283.31 214.811C284.596 214.164 286.016 213.828 287.455 213.828C288.894 213.828 290.314 214.164 291.6 214.811L436.84 298.761C437.507 299.145 438.06 299.698 438.445 300.364C438.83 301.03 439.033 301.786 439.033 302.556C439.033 303.325 438.83 304.081 438.445 304.747C438.06 305.413 437.507 305.967 436.84 306.351L203.84 441.021C202.549 441.674 201.122 442.014 199.675 442.014C198.228 442.014 196.801 441.674 195.51 441.021Z" fill="#E0E0E0"/>
<path d="M372.13 429.661C401.158 429.661 424.69 416.077 424.69 399.321C424.69 382.564 401.158 368.981 372.13 368.981C343.102 368.981 319.57 382.564 319.57 399.321C319.57 416.077 343.102 429.661 372.13 429.661Z" fill="#E0E0E0"/>
<path d="M68.35 311.491C68.35 311.491 68.05 290.141 59.18 272.711C50.31 255.281 36.9 243.621 23.54 241.221C10.18 238.821 -1.92 250.121 11.64 260.061C25.2 270.001 49.92 281.221 58.53 314.201L68.35 311.491Z" fill="#CC66E8"/>
<path opacity="0.15" d="M68.35 311.491C68.35 311.491 68.05 290.141 59.18 272.711C50.31 255.281 36.9 243.621 23.54 241.221C10.18 238.821 -1.92 250.121 11.64 260.061C25.2 270.001 49.92 281.221 58.53 314.201L68.35 311.491Z" fill="black"/>
<path d="M64.95 305.611C64.9962 305.62 65.0438 305.62 65.09 305.611C65.1812 305.585 65.2665 305.542 65.3408 305.483C65.415 305.425 65.4768 305.352 65.5225 305.269C65.5681 305.186 65.5967 305.095 65.6066 305.001C65.6165 304.906 65.6075 304.811 65.58 304.721C54.86 268.321 29.27 251.021 17.23 246.961C17.0543 246.916 16.8682 246.939 16.7089 247.026C16.5496 247.113 16.4288 247.256 16.3707 247.428C16.3126 247.6 16.3215 247.787 16.3955 247.952C16.4695 248.118 16.6033 248.249 16.77 248.321C28.56 252.321 53.64 269.321 64.2 305.121C64.2497 305.276 64.3514 305.41 64.488 305.499C64.6246 305.588 64.7877 305.628 64.95 305.611Z" fill="white"/>
<path d="M69.7 331.681C64.7 334.531 61.9 336.381 52.81 337.141C46.3338 337.575 39.8368 336.694 33.71 334.551C32.02 333.941 29.41 332.611 30.88 330.991C31.64 330.151 40.56 328.731 43.75 324.991C39.6724 326.18 35.4779 326.924 31.24 327.211C27.3416 327.434 23.4922 326.252 20.39 323.881C17.44 321.421 15.85 317.751 14.39 314.211C13.88 313.001 13.39 311.521 14.18 310.471C14.7526 309.858 15.5124 309.454 16.34 309.321L26.47 306.491C28.68 306.021 27.12 304.571 26.29 304.441C25.0714 304.269 23.839 304.215 22.61 304.281C18.74 304.491 14.47 305.221 11.31 302.971C9.45674 301.507 8.2188 299.402 7.84004 297.071C7.68004 296.271 7.01004 285.831 7.47004 285.701C10.0092 285.059 12.5932 284.611 15.2 284.361C17.65 284.071 20.04 283.961 22.48 283.631C25.2378 283.261 28.0176 283.081 30.8 283.091C31.7458 283.012 32.6947 283.199 33.54 283.631C34.0509 284.034 34.4664 284.545 34.7569 285.128C35.0473 285.71 35.2054 286.35 35.22 287.001C35.2359 288.297 35.4105 289.587 35.74 290.841C36.92 290.741 37.31 289.191 37.28 288.001C37.25 286.811 37.28 285.321 38.35 284.811C38.928 284.62 39.552 284.62 40.13 284.811C43.9292 285.584 47.6221 286.81 51.13 288.461C52.7637 289.131 54.2388 290.136 55.46 291.411C57.16 293.411 57.66 296.131 57.68 298.741C57.7 301.351 57.29 303.941 57.46 306.541C59.46 304.721 62.33 299.191 62.55 296.471C66.93 299.281 69.55 305.091 70.34 313.021C70.8678 318.832 70.7605 324.683 70.02 330.471C69.91 330.611 69.84 331.541 69.7 331.681Z" fill="#CC66E8"/>
<path opacity="0.3" d="M69.7 331.681C64.7 334.531 61.9 336.381 52.81 337.141C46.3338 337.575 39.8368 336.694 33.71 334.551C32.02 333.941 29.41 332.611 30.88 330.991C31.64 330.151 40.56 328.731 43.75 324.991C39.6724 326.18 35.4779 326.924 31.24 327.211C27.3416 327.434 23.4922 326.252 20.39 323.881C17.44 321.421 15.85 317.751 14.39 314.211C13.88 313.001 13.39 311.521 14.18 310.471C14.7526 309.858 15.5124 309.454 16.34 309.321L26.47 306.491C28.68 306.021 27.12 304.571 26.29 304.441C25.0714 304.269 23.839 304.215 22.61 304.281C18.74 304.491 14.47 305.221 11.31 302.971C9.45674 301.507 8.2188 299.402 7.84004 297.071C7.68004 296.271 7.01004 285.831 7.47004 285.701C10.0092 285.059 12.5932 284.611 15.2 284.361C17.65 284.071 20.04 283.961 22.48 283.631C25.2378 283.261 28.0176 283.081 30.8 283.091C31.7458 283.012 32.6947 283.199 33.54 283.631C34.0509 284.034 34.4664 284.545 34.7569 285.128C35.0473 285.71 35.2054 286.35 35.22 287.001C35.2359 288.297 35.4105 289.587 35.74 290.841C36.92 290.741 37.31 289.191 37.28 288.001C37.25 286.811 37.28 285.321 38.35 284.811C38.928 284.62 39.552 284.62 40.13 284.811C43.9292 285.584 47.6221 286.81 51.13 288.461C52.7637 289.131 54.2388 290.136 55.46 291.411C57.16 293.411 57.66 296.131 57.68 298.741C57.7 301.351 57.29 303.941 57.46 306.541C59.46 304.721 62.33 299.191 62.55 296.471C66.93 299.281 69.55 305.091 70.34 313.021C70.8678 318.832 70.7605 324.683 70.02 330.471C69.91 330.611 69.84 331.541 69.7 331.681Z" fill="black"/>
<path d="M68.8401 330.681C68.7312 330.68 68.6246 330.649 68.5314 330.593C68.4382 330.537 68.3618 330.457 68.3101 330.361C54.1201 303.121 22.7401 291.641 15.1101 290.061C14.9536 290.028 14.8167 289.934 14.7295 289.8C14.6423 289.665 14.6119 289.502 14.6451 289.346C14.6782 289.189 14.7722 289.052 14.9063 288.965C15.0403 288.878 15.2036 288.848 15.3601 288.881C23.1001 290.491 54.9701 302.141 69.3601 329.811C69.3965 329.88 69.419 329.955 69.4262 330.033C69.4333 330.11 69.425 330.189 69.4018 330.263C69.3786 330.337 69.3408 330.406 69.2907 330.466C69.2407 330.526 69.1792 330.575 69.1101 330.611C69.0276 330.657 68.9346 330.681 68.8401 330.681Z" fill="white"/>
<path d="M27.6601 314.951C27.5083 314.949 27.3628 314.89 27.2518 314.787C27.1409 314.683 27.0725 314.542 27.0601 314.391C27.0533 314.313 27.0622 314.234 27.0863 314.159C27.1103 314.084 27.1492 314.015 27.2004 313.955C27.2516 313.895 27.3143 313.847 27.3846 313.812C27.455 313.777 27.5316 313.756 27.6101 313.751C43.2701 312.521 48.3301 306.391 48.3801 306.331C48.4825 306.22 48.623 306.152 48.7735 306.14C48.924 306.128 49.0736 306.173 49.1922 306.266C49.3109 306.36 49.3899 306.494 49.4136 306.644C49.4373 306.793 49.4039 306.945 49.3201 307.071C49.1101 307.341 43.9501 313.671 27.7101 314.941L27.6601 314.951Z" fill="white"/>
<path d="M447.84 238.981C440.9 246.571 428.17 259.061 420.77 271.121C420.75 271.149 420.733 271.179 420.72 271.211C417.83 275.941 415.72 280.601 415.19 284.871L414.67 292.581L411.5 290.751L410.97 290.441L409.66 289.691C408.736 289.154 407.964 288.39 407.418 287.471C406.871 286.552 406.569 285.509 406.54 284.441C406.03 265.641 411.06 249.661 415.92 239.991C422.57 226.781 435.03 213.311 445.86 214.631C455.97 215.861 457.56 228.401 447.84 238.981Z" fill="#CC66E8"/>
<path opacity="0.15" d="M447.84 238.981C440.9 246.571 428.17 259.061 420.77 271.121C420.75 271.149 420.733 271.179 420.72 271.211C417.83 275.941 415.72 280.601 415.19 284.871L414.67 292.581L411.5 290.751L410.97 290.441L409.66 289.691C408.736 289.154 407.964 288.39 407.418 287.471C406.872 286.553 406.569 285.509 406.54 284.441C406.04 265.641 411.06 249.661 415.92 239.991C422.59 226.781 435.05 213.311 445.84 214.681C455.95 215.861 457.54 228.401 447.84 238.981Z" fill="black"/>
<path d="M442.77 221.921C429.51 230.301 410.58 259.511 411.01 290.441L409.7 289.691C409.59 258.571 428.7 229.291 442.07 220.821C442.216 220.728 442.393 220.697 442.561 220.734C442.645 220.753 442.724 220.788 442.794 220.837C442.864 220.886 442.924 220.948 442.97 221.021C443.016 221.093 443.047 221.173 443.062 221.258C443.077 221.342 443.075 221.429 443.056 221.512C443.038 221.596 443.003 221.675 442.954 221.745C442.905 221.815 442.842 221.875 442.77 221.921Z" fill="white"/>
<path d="M455.74 263.761C453.43 270.031 440.25 275.471 430.52 284.521C428.108 286.76 425.874 289.184 423.84 291.771C422.93 292.933 421.629 293.728 420.179 294.007C418.729 294.286 417.227 294.032 415.95 293.291L414.79 292.621H414.71L411.54 290.791C413.484 283.802 416.602 277.194 420.76 271.251C420.773 271.219 420.79 271.189 420.81 271.161C427.25 261.821 435.2 255.071 440.75 253.541C451.66 250.501 458.51 256.231 455.74 263.761Z" fill="#CC66E8"/>
<path opacity="0.3" d="M455.74 263.761C453.43 270.031 440.25 275.471 430.52 284.521C428.108 286.76 425.874 289.184 423.84 291.771C422.93 292.933 421.629 293.728 420.179 294.007C418.729 294.286 417.227 294.032 415.95 293.291L414.79 292.621H414.71L411.54 290.791C413.484 283.802 416.602 277.194 420.76 271.251C420.773 271.219 420.79 271.189 420.81 271.161C427.25 261.821 435.2 255.071 440.75 253.541C451.66 250.501 458.51 256.231 455.74 263.761Z" fill="black"/>
<path d="M446.47 259.991C438.47 262.241 423.06 271.991 415.95 293.291L414.79 292.621C422 271.031 437.35 261.211 446.12 258.741C446.204 258.712 446.292 258.701 446.38 258.708C446.468 258.715 446.554 258.74 446.632 258.781C446.71 258.823 446.779 258.879 446.835 258.948C446.89 259.017 446.931 259.096 446.955 259.181C446.979 259.266 446.985 259.355 446.973 259.443C446.962 259.53 446.932 259.614 446.887 259.69C446.841 259.766 446.781 259.832 446.709 259.883C446.638 259.935 446.556 259.972 446.47 259.991Z" fill="white"/>
<path d="M60.9399 343.991C60.9399 347.461 63.5399 351.771 66.7399 353.621L193.03 426.551C194.827 427.463 196.814 427.938 198.83 427.938C200.845 427.938 202.833 427.463 204.63 426.551L427 298.161C430.21 296.311 432.8 292.001 432.8 288.531C432.8 285.061 430.21 280.741 427 278.891L300.72 205.971C298.923 205.059 296.935 204.584 294.92 204.584C292.904 204.584 290.917 205.059 289.12 205.971L66.7399 334.361C63.5399 336.211 60.9399 340.521 60.9399 343.991Z" fill="#455A64"/>
<path d="M432.84 288.531C432.84 292.001 430.24 296.301 427.04 298.161L204.63 426.551C202.844 427.491 200.849 427.966 198.83 427.931V415.371C200.85 415.403 202.845 414.925 204.63 413.981L427.01 285.591C429.81 283.981 430.16 281.471 428.06 279.591C430.75 281.731 432.84 285.451 432.84 288.531Z" fill="#37474F"/>
<path d="M198.84 415.381V427.931C196.821 427.972 194.824 427.497 193.04 426.551L66.7399 353.621C63.5399 351.771 60.9399 347.461 60.9399 343.991C60.9399 340.731 63.2299 336.741 66.1499 334.731C63.5499 336.591 63.7499 339.331 66.7399 341.061L193.03 413.991C194.816 414.942 196.816 415.42 198.84 415.381Z" fill="#263238"/>
<path d="M55.5 334.561C52.66 332.561 52.66 329.901 52.66 326.201V139.321C52.7738 137.316 53.3581 135.365 54.3658 133.628C55.3734 131.891 56.776 130.415 58.46 129.321L280.84 0.890766C284.05 -0.959234 287 0.380767 290.01 2.11077C293.02 3.84077 294.93 5.35077 294.93 9.04077V195.921C294.812 197.925 294.226 199.874 293.219 201.61C292.212 203.347 290.811 204.823 289.13 205.921L66.74 334.361C61.89 337.681 58.58 336.741 55.5 334.561Z" fill="#37474F"/>
<path d="M66.74 334.361C61.89 337.621 58.58 336.741 55.5 334.561C52.67 332.561 52.66 329.901 52.66 326.201V139.331C52.729 137.315 53.3107 135.349 54.35 133.621L62.63 138.431C61.5874 140.154 61.0054 142.117 60.94 144.131V331.011C60.94 334.681 63.53 336.201 66.74 334.361Z" fill="#263238"/>
<path d="M294.92 9.04077C294.92 5.35077 292.32 3.85077 289.12 5.69077L66.74 134.091C65.0211 135.154 63.6082 136.646 62.64 138.421L54.36 133.611C55.342 131.841 56.7559 130.348 58.47 129.271L280.84 0.890766C284.04 -0.959234 287 0.380767 290 2.11077C293 3.84077 294.92 5.35077 294.92 9.04077Z" fill="#455A64"/>
<path d="M69.84 140.781L284.26 17.0208C286.18 15.9108 287.74 16.8108 287.74 19.0208V190.441C287.67 191.643 287.318 192.813 286.714 193.855C286.109 194.897 285.269 195.783 284.26 196.441L69.84 320.221C67.92 321.331 66.36 320.431 66.36 318.221V146.801C66.4256 145.594 66.775 144.42 67.3797 143.374C67.9843 142.328 68.8273 141.44 69.84 140.781Z" fill="#263238"/>
<path d="M69.84 140.781C68.8299 141.438 67.9886 142.323 67.384 143.365C66.7795 144.408 66.4287 145.578 66.36 146.781V317.171L279.5 194.171C280.509 193.513 281.349 192.627 281.954 191.585C282.558 190.543 282.91 189.373 282.98 188.171V17.7507L69.84 140.781Z" fill="#649CFF"/>
<path opacity="0.65" d="M69.84 140.781C68.8299 141.438 67.9886 142.323 67.384 143.365C66.7795 144.408 66.4287 145.578 66.36 146.781V317.171L279.5 194.171C280.509 193.513 281.349 192.627 281.954 191.585C282.558 190.543 282.91 189.373 282.98 188.171V17.7507L69.84 140.781Z" fill="white"/>
<path d="M82.84 334.681L289.21 215.531C290.108 215.072 291.102 214.833 292.11 214.833C293.118 214.833 294.112 215.072 295.01 215.531L301.01 218.681C302.61 219.611 302.61 221.111 301.01 222.031L94.57 341.181C93.672 341.639 92.6782 341.878 91.67 341.878C90.6618 341.878 89.668 341.639 88.77 341.181L82.77 338.051C81.19 337.121 81.19 335.621 82.84 334.681Z" fill="#37474F"/>
<path d="M98.98 344.331L305.39 225.151C306.192 224.699 307.087 224.438 308.006 224.388C308.925 224.338 309.843 224.499 310.69 224.861L364.42 255.861C365.74 256.631 365.52 258.001 363.92 258.921L157.75 377.921C156.949 378.38 156.052 378.646 155.13 378.698C154.209 378.75 153.287 378.587 152.44 378.221L98.49 347.381C97.16 346.621 97.38 345.251 98.98 344.331Z" fill="#263238"/>
<path d="M276.14 274.681L282.6 270.951C282.87 270.791 282.91 270.561 282.69 270.431L276.99 267.131C276.844 267.068 276.686 267.041 276.528 267.051C276.37 267.061 276.216 267.109 276.08 267.191L269.62 270.921C269.35 271.081 269.31 271.311 269.53 271.441L275.23 274.731C275.375 274.795 275.533 274.824 275.691 274.815C275.849 274.807 276.003 274.761 276.14 274.681ZM267.14 262.011L260.67 265.741C260.4 265.901 260.36 266.131 260.58 266.261L266.29 269.551C266.433 269.613 266.59 269.642 266.746 269.633C266.902 269.624 267.054 269.579 267.19 269.501L273.65 265.771C273.93 265.611 273.97 265.381 273.74 265.251L268.04 261.961C267.891 261.901 267.729 261.877 267.569 261.893C267.409 261.909 267.255 261.963 267.12 262.051L267.14 262.011ZM246.24 274.111L235.3 280.421C235.03 280.581 234.99 280.811 235.21 280.941L240.91 284.231C241.055 284.295 241.213 284.324 241.371 284.315C241.529 284.307 241.683 284.261 241.82 284.181L252.75 277.871C253.03 277.711 253.07 277.471 252.84 277.341L247.14 274.051C246.996 273.99 246.839 273.963 246.683 273.973C246.527 273.984 246.375 274.031 246.24 274.111ZM257.67 267.501L251.21 271.231C250.93 271.391 250.89 271.631 251.12 271.761L256.82 275.051C256.963 275.113 257.12 275.142 257.276 275.133C257.432 275.124 257.584 275.079 257.72 275.001L264.19 271.271C264.46 271.111 264.5 270.871 264.28 270.741L258.58 267.451C258.435 267.386 258.277 267.357 258.119 267.366C257.961 267.375 257.807 267.421 257.67 267.501ZM232.32 282.141L225.84 285.871C225.56 286.031 225.52 286.271 225.74 286.391L231.45 289.691C231.594 289.752 231.751 289.778 231.907 289.768C232.063 289.758 232.215 289.711 232.35 289.631L238.81 285.901C239.09 285.741 239.13 285.511 238.9 285.381L233.2 282.091C233.059 282.031 232.907 282.005 232.754 282.014C232.602 282.022 232.453 282.066 232.32 282.141ZM222.84 287.601L216.38 291.331C216.1 291.481 216.06 291.721 216.29 291.851L221.99 295.141C222.13 295.211 222.284 295.248 222.44 295.248C222.596 295.248 222.75 295.211 222.89 295.141L229.36 291.411C229.63 291.251 229.67 291.011 229.45 290.881L223.75 287.591C223.608 287.52 223.452 287.484 223.294 287.486C223.136 287.488 222.98 287.527 222.84 287.601ZM246.84 302.001L253.3 298.261C253.58 298.111 253.62 297.871 253.39 297.741L247.69 294.451C247.547 294.388 247.39 294.36 247.234 294.369C247.078 294.377 246.926 294.423 246.79 294.501L240.33 298.231C240.05 298.391 240.01 298.631 240.24 298.761L245.94 302.051C246.083 302.113 246.24 302.142 246.396 302.133C246.552 302.124 246.704 302.079 246.84 302.001ZM237.4 307.451L243.84 303.681C244.11 303.521 244.15 303.291 243.93 303.161L238.23 299.871C238.089 299.799 237.933 299.761 237.775 299.761C237.617 299.761 237.461 299.799 237.32 299.871L230.84 303.681C230.57 303.841 230.53 304.071 230.75 304.201L236.45 307.491C236.597 307.56 236.758 307.593 236.92 307.586C237.082 307.579 237.24 307.532 237.38 307.451H237.4ZM227.95 312.901L234.41 309.171C234.69 309.011 234.73 308.781 234.5 308.651L228.8 305.361C228.657 305.298 228.5 305.27 228.344 305.279C228.188 305.287 228.036 305.333 227.9 305.411L221.43 309.141C221.16 309.301 221.12 309.531 221.35 309.661L227.05 312.951C227.191 313.01 227.343 313.037 227.496 313.028C227.648 313.019 227.797 312.976 227.93 312.901H227.95ZM218.5 318.361L224.97 314.631C225.24 314.471 225.28 314.231 225.06 314.101L219.36 310.811C219.215 310.746 219.057 310.717 218.899 310.726C218.741 310.735 218.587 310.781 218.45 310.861L211.99 314.591C211.71 314.751 211.67 314.991 211.9 315.121L217.6 318.411C217.741 318.47 217.893 318.497 218.046 318.488C218.198 318.479 218.347 318.436 218.48 318.361H218.5ZM266.71 280.171L273.17 276.441C273.45 276.281 273.49 276.051 273.26 275.921L267.54 272.681C267.397 272.618 267.24 272.59 267.084 272.599C266.928 272.607 266.776 272.653 266.64 272.731L260.17 276.461C259.9 276.621 259.86 276.851 260.08 276.981L265.78 280.271C265.929 280.328 266.089 280.348 266.247 280.331C266.405 280.314 266.557 280.259 266.69 280.171H266.71ZM256.29 296.541L270.7 288.221C270.98 288.061 271.02 287.831 270.79 287.701L256.13 279.231C255.985 279.166 255.827 279.137 255.669 279.146C255.511 279.155 255.357 279.201 255.22 279.281L247.77 283.591C247.49 283.751 247.45 283.981 247.68 284.111L255.83 288.811C256.05 288.941 256.01 289.181 255.74 289.341L249.74 292.781C249.47 292.941 249.43 293.171 249.65 293.301L255.35 296.591C255.496 296.657 255.656 296.687 255.816 296.678C255.976 296.669 256.132 296.622 256.27 296.541H256.29ZM213.45 293.051L206.98 296.781C206.71 296.941 206.67 297.171 206.89 297.301L212.59 300.591C212.735 300.655 212.893 300.684 213.051 300.675C213.209 300.667 213.363 300.621 213.5 300.541L219.96 296.811C220.24 296.651 220.28 296.421 220.05 296.291L214.35 293.001C214.204 292.935 214.044 292.905 213.884 292.913C213.724 292.922 213.568 292.969 213.43 293.051H213.45ZM204 298.501L197.54 302.231C197.26 302.391 197.22 302.631 197.45 302.761L203.15 306.051C203.294 306.112 203.451 306.138 203.607 306.128C203.763 306.118 203.915 306.071 204.05 305.991L210.52 302.261C210.79 302.111 210.83 301.871 210.61 301.741L204.84 298.451C204.702 298.394 204.553 298.37 204.404 298.378C204.256 298.387 204.111 298.429 203.98 298.501H204ZM151.46 356.581C151.6 356.651 151.754 356.688 151.91 356.688C152.066 356.688 152.22 356.651 152.36 356.581L158.83 352.851C159.1 352.691 159.14 352.461 158.92 352.331L153.22 349.041C153.075 348.976 152.917 348.947 152.759 348.956C152.601 348.965 152.447 349.011 152.31 349.091L145.84 352.771C145.57 352.931 145.53 353.161 145.75 353.291L151.46 356.581ZM128.46 342.131L121.99 345.861C121.72 346.021 121.68 346.251 121.9 346.381L127.6 349.671C127.745 349.735 127.903 349.764 128.061 349.755C128.219 349.747 128.373 349.701 128.51 349.621L134.97 345.891C135.25 345.731 135.29 345.501 135.06 345.371L129.36 342.081C129.211 342.011 129.048 341.979 128.884 341.988C128.72 341.997 128.561 342.046 128.42 342.131H128.46ZM140.05 352.841C140.193 352.903 140.35 352.932 140.506 352.923C140.662 352.914 140.814 352.869 140.95 352.791L147.42 349.061C147.69 348.901 147.73 348.671 147.51 348.541L141.81 345.241C141.664 345.178 141.506 345.151 141.348 345.161C141.19 345.171 141.036 345.219 140.9 345.301L134.44 349.031C134.16 349.191 134.12 349.421 134.35 349.551L140.05 352.841ZM166.34 358.841L172.8 355.111C173.08 354.951 173.12 354.711 172.89 354.581L167.19 351.291C167.047 351.228 166.89 351.2 166.734 351.209C166.578 351.217 166.426 351.263 166.29 351.341L159.84 355.081C159.56 355.231 159.52 355.471 159.75 355.601L165.45 358.891C165.587 358.945 165.734 358.969 165.881 358.961C166.028 358.952 166.171 358.911 166.3 358.841H166.34ZM155.99 364.341C156.135 364.405 156.293 364.434 156.451 364.425C156.609 364.417 156.763 364.371 156.9 364.291L163.36 360.561C163.63 360.401 163.67 360.171 163.45 360.041L157.75 356.751C157.605 356.686 157.447 356.657 157.289 356.666C157.131 356.675 156.977 356.721 156.84 356.801L150.38 360.531C150.11 360.691 150.07 360.921 150.29 361.051L155.99 364.341ZM137.84 336.681L131.38 340.411C131.1 340.571 131.06 340.801 131.29 340.931L136.99 344.221C137.133 344.283 137.29 344.312 137.446 344.303C137.602 344.294 137.754 344.249 137.89 344.171L144.36 340.441C144.63 340.281 144.67 340.051 144.45 339.921L138.75 336.621C138.604 336.558 138.446 336.531 138.288 336.541C138.13 336.551 137.976 336.599 137.84 336.681ZM185.07 309.411L178.61 313.141C178.33 313.301 178.29 313.531 178.52 313.661L184.22 316.951C184.36 317.021 184.514 317.058 184.67 317.058C184.826 317.058 184.98 317.021 185.12 316.951L191.58 313.221C191.86 313.061 191.9 312.831 191.67 312.701L185.97 309.411C185.833 309.344 185.683 309.309 185.53 309.309C185.377 309.309 185.227 309.344 185.09 309.411H185.07ZM147.29 331.221L140.84 334.951C140.57 335.111 140.53 335.351 140.75 335.481L146.45 338.771C146.591 338.843 146.747 338.88 146.905 338.88C147.063 338.88 147.219 338.843 147.36 338.771L153.84 334.981C154.12 334.831 154.16 334.591 153.93 334.461L148.23 331.171C148.084 331.105 147.924 331.075 147.764 331.083C147.604 331.092 147.448 331.139 147.31 331.221H147.29ZM194.51 303.961L188.07 307.681C187.8 307.831 187.76 308.071 187.98 308.201L193.68 311.491C193.825 311.555 193.983 311.584 194.141 311.575C194.299 311.567 194.453 311.521 194.59 311.441L201.05 307.711C201.32 307.551 201.36 307.311 201.14 307.181L195.44 303.891C195.294 303.829 195.135 303.804 194.977 303.816C194.818 303.828 194.665 303.878 194.53 303.961H194.51ZM175.62 314.861L169.16 318.591C168.89 318.751 168.85 318.991 169.07 319.121L174.77 322.411C174.916 322.474 175.074 322.501 175.232 322.491C175.39 322.48 175.544 322.432 175.68 322.351L182.14 318.621C182.41 318.471 182.45 318.231 182.23 318.101L176.53 314.811C176.388 314.75 176.234 314.722 176.079 314.731C175.925 314.74 175.774 314.784 175.64 314.861H175.62ZM166.18 320.321L159.72 324.051C159.44 324.211 159.4 324.441 159.63 324.571L165.33 327.861C165.473 327.923 165.63 327.952 165.786 327.943C165.942 327.934 166.094 327.889 166.23 327.811L172.69 324.081C172.97 323.921 173.01 323.681 172.78 323.561L167.08 320.261C166.938 320.203 166.786 320.178 166.633 320.188C166.48 320.199 166.332 320.244 166.2 320.321H166.18ZM156.73 325.771L150.27 329.501C150 329.661 149.96 329.891 150.18 330.021L155.88 333.311C156.025 333.375 156.183 333.404 156.341 333.395C156.499 333.387 156.653 333.341 156.79 333.261L163.25 329.531C163.52 329.371 163.56 329.141 163.34 329.011L157.64 325.721C157.498 325.66 157.344 325.632 157.189 325.641C157.035 325.65 156.884 325.694 156.75 325.771H156.73ZM199.57 329.261L206.04 325.531C206.31 325.371 206.35 325.141 206.13 325.011L200.44 321.681C200.3 321.61 200.146 321.574 199.99 321.574C199.834 321.574 199.68 321.61 199.54 321.681L193.08 325.411C192.8 325.571 192.76 325.801 192.99 325.931L198.69 329.231C198.827 329.306 198.98 329.348 199.136 329.353C199.293 329.358 199.448 329.326 199.59 329.261H199.57ZM287.98 249.991L281.51 253.731C281.24 253.881 281.2 254.121 281.42 254.251L287.13 257.541C287.273 257.603 287.43 257.632 287.586 257.623C287.742 257.614 287.894 257.569 288.03 257.491L294.49 253.761C294.77 253.601 294.81 253.361 294.58 253.231L288.88 249.941C288.739 249.881 288.587 249.855 288.434 249.864C288.282 249.872 288.133 249.916 288 249.991H287.98ZM276.54 256.601L270.08 260.331C269.81 260.491 269.77 260.721 269.99 260.851L275.69 264.141C275.83 264.211 275.984 264.248 276.14 264.248C276.296 264.248 276.45 264.211 276.59 264.141L283.06 260.411C283.33 260.251 283.37 260.021 283.15 259.891L277.45 256.591C277.311 256.524 277.158 256.49 277.004 256.491C276.849 256.493 276.698 256.53 276.56 256.601H276.54ZM297.42 244.541L290.96 248.271C290.69 248.431 290.65 248.671 290.87 248.801L296.57 252.091C296.714 252.152 296.871 252.178 297.027 252.168C297.183 252.158 297.335 252.111 297.47 252.031L303.94 248.301C304.21 248.141 304.25 247.911 304.03 247.781L298.33 244.491C298.188 244.43 298.034 244.402 297.879 244.411C297.725 244.42 297.574 244.464 297.44 244.541H297.42ZM244.84 292.801L251.3 289.071C251.57 288.911 251.61 288.681 251.39 288.551L245.69 285.261C245.545 285.196 245.387 285.167 245.229 285.176C245.071 285.185 244.917 285.231 244.78 285.311L238.32 289.041C238.05 289.201 238.01 289.431 238.23 289.561L243.93 292.851C244.075 292.915 244.233 292.944 244.391 292.935C244.549 292.927 244.703 292.881 244.84 292.801ZM307.84 239.041C307.7 238.97 307.546 238.934 307.39 238.934C307.234 238.934 307.08 238.97 306.94 239.041L300.48 242.771C300.2 242.931 300.16 243.161 300.39 243.291L306.09 246.581C306.233 246.643 306.39 246.672 306.546 246.663C306.702 246.654 306.854 246.609 306.99 246.531L313.45 242.801C313.73 242.641 313.77 242.411 313.54 242.281L307.84 239.041ZM209.04 323.811L215.5 320.081C215.78 319.921 215.82 319.691 215.59 319.561L209.89 316.271C209.747 316.208 209.59 316.18 209.434 316.189C209.278 316.197 209.126 316.243 208.99 316.321L202.52 320.051C202.25 320.211 202.21 320.441 202.43 320.571L208.13 323.861C208.275 323.925 208.433 323.954 208.591 323.945C208.749 323.937 208.903 323.891 209.04 323.811ZM324.84 256.931L331.3 253.201C331.58 253.041 331.62 252.811 331.39 252.681L325.69 249.391C325.547 249.328 325.39 249.3 325.234 249.309C325.078 249.317 324.926 249.363 324.79 249.441L318.33 253.171C318.05 253.331 318.01 253.561 318.24 253.691L323.94 256.991C324.084 257.052 324.241 257.078 324.397 257.068C324.553 257.058 324.705 257.011 324.84 256.931ZM306.43 257.211L312.89 253.481C313.17 253.321 313.21 253.091 312.98 252.961L307.28 249.671C307.137 249.608 306.98 249.58 306.824 249.589C306.668 249.597 306.516 249.643 306.38 249.721L299.92 253.451C299.64 253.611 299.6 253.841 299.83 253.971L305.53 257.261C305.677 257.328 305.839 257.359 306.001 257.351C306.163 257.342 306.321 257.294 306.46 257.211H306.43ZM316.73 244.211C316.585 244.146 316.427 244.117 316.269 244.126C316.111 244.135 315.957 244.181 315.82 244.261L309.36 248.001C309.09 248.151 309.05 248.391 309.27 248.521L314.97 251.811C315.115 251.875 315.273 251.904 315.431 251.895C315.589 251.887 315.743 251.841 315.88 251.761L322.34 248.031C322.61 247.871 322.65 247.631 322.43 247.501L316.73 244.211ZM318.73 243.061L333.39 251.531C333.535 251.595 333.693 251.624 333.851 251.615C334.009 251.607 334.163 251.561 334.3 251.481L340.76 247.751C341.03 247.591 341.07 247.361 340.85 247.231L326.18 238.761C326.04 238.69 325.886 238.654 325.73 238.654C325.574 238.654 325.42 238.69 325.28 238.761L318.84 242.541C318.56 242.681 318.52 242.931 318.75 243.061H318.73ZM296.94 255.171L290.48 258.901C290.21 259.061 290.16 259.291 290.39 259.421L296.09 262.721C296.236 262.784 296.394 262.811 296.552 262.801C296.71 262.79 296.864 262.742 297 262.661L303.46 258.931C303.73 258.771 303.77 258.541 303.55 258.411L297.85 255.121C297.708 255.06 297.554 255.032 297.399 255.041C297.245 255.05 297.094 255.094 296.96 255.171H296.94ZM225.84 296.221L219.38 299.951C219.1 300.111 219.06 300.341 219.29 300.471L224.99 303.761C225.133 303.823 225.29 303.852 225.446 303.843C225.602 303.834 225.754 303.789 225.89 303.711L232.36 299.981C232.63 299.821 232.67 299.581 232.45 299.461L226.75 296.161C226.604 296.098 226.446 296.071 226.288 296.081C226.13 296.091 225.976 296.139 225.84 296.221ZM314.49 262.441C314.635 262.505 314.793 262.534 314.951 262.525C315.109 262.517 315.263 262.471 315.4 262.391L321.86 258.661C322.13 258.501 322.17 258.261 321.95 258.131L316.25 254.841C316.109 254.769 315.953 254.731 315.795 254.731C315.637 254.731 315.481 254.769 315.34 254.841L308.91 258.681C308.64 258.831 308.6 259.071 308.82 259.201L314.49 262.441ZM235.29 290.761L228.84 294.491C228.57 294.651 228.53 294.891 228.76 295.021L234.46 298.311C234.603 298.373 234.76 298.402 234.916 298.393C235.072 298.384 235.224 298.339 235.36 298.261L241.82 294.521C242.1 294.371 242.14 294.131 241.91 294.001L236.21 290.711C236.068 290.65 235.914 290.622 235.759 290.631C235.605 290.64 235.454 290.684 235.32 290.761H235.29ZM160.88 351.131C161.023 351.193 161.18 351.222 161.336 351.213C161.492 351.204 161.644 351.159 161.78 351.081L168.24 347.351C168.52 347.191 168.56 346.951 168.33 346.821L162.63 343.531C162.49 343.46 162.336 343.424 162.18 343.424C162.024 343.424 161.87 343.46 161.73 343.531L155.27 347.271C154.99 347.421 154.95 347.661 155.18 347.791L160.88 351.131ZM150.28 339.841L143.84 343.571C143.57 343.731 143.53 343.971 143.75 344.101L149.45 347.391C149.591 347.463 149.747 347.5 149.905 347.5C150.063 347.5 150.219 347.463 150.36 347.391L156.82 343.651C157.1 343.501 157.14 343.261 156.91 343.131L151.21 339.841C151.07 339.77 150.916 339.734 150.76 339.734C150.604 339.734 150.45 339.77 150.31 339.841H150.28ZM171.23 345.621L177.69 341.891C177.96 341.731 178 341.501 177.78 341.371L172.08 338.081C171.935 338.016 171.777 337.987 171.619 337.996C171.461 338.005 171.307 338.051 171.17 338.131L164.71 341.861C164.44 342.021 164.4 342.251 164.62 342.381L170.32 345.681C170.471 345.745 170.634 345.772 170.797 345.762C170.96 345.752 171.119 345.703 171.26 345.621H171.23ZM180.67 340.171L187.13 336.441C187.41 336.281 187.45 336.051 187.22 335.921L181.52 332.631C181.377 332.568 181.22 332.54 181.064 332.549C180.908 332.557 180.756 332.603 180.62 332.681L174.16 336.411C173.88 336.571 173.84 336.801 174.07 336.931L179.77 340.221C179.917 340.288 180.079 340.319 180.241 340.311C180.403 340.302 180.561 340.254 180.7 340.171H180.67ZM190.12 334.721L196.58 330.991C196.85 330.831 196.89 330.591 196.67 330.461L190.97 327.171C190.825 327.106 190.667 327.077 190.509 327.086C190.351 327.095 190.197 327.141 190.06 327.221L183.6 330.961C183.33 331.111 183.29 331.351 183.51 331.481L189.21 334.771C189.362 334.834 189.527 334.859 189.691 334.844C189.855 334.828 190.013 334.772 190.15 334.681L190.12 334.721ZM159.72 334.391L153.26 338.121C152.99 338.281 152.95 338.511 153.17 338.641L158.87 341.931C159.015 341.995 159.173 342.024 159.331 342.015C159.489 342.007 159.643 341.961 159.78 341.881L166.24 338.151C166.51 337.991 166.55 337.761 166.33 337.631L160.63 334.341C160.489 334.281 160.337 334.255 160.184 334.264C160.032 334.272 159.883 334.316 159.75 334.391H159.72ZM169.17 328.941L162.74 332.681C162.46 332.841 162.42 333.071 162.65 333.201L168.35 336.491C168.493 336.553 168.65 336.582 168.806 336.573C168.962 336.564 169.114 336.519 169.25 336.441L175.71 332.711C175.99 332.551 176.03 332.321 175.8 332.191L170.1 328.891C169.957 328.828 169.8 328.8 169.644 328.809C169.488 328.817 169.336 328.863 169.2 328.941H169.17ZM206.95 307.121L200.49 310.851C200.21 311.011 200.17 311.251 200.4 311.381L206.1 314.671C206.243 314.733 206.4 314.762 206.556 314.753C206.712 314.744 206.864 314.699 207 314.621L213.47 310.881C213.74 310.731 213.78 310.491 213.56 310.361L207.84 307.071C207.702 307.014 207.553 306.99 207.404 306.998C207.256 307.007 207.111 307.049 206.98 307.121H206.95ZM197.5 312.581L191.04 316.311C190.77 316.471 190.73 316.701 190.95 316.831L196.65 320.121C196.795 320.185 196.953 320.214 197.111 320.205C197.269 320.197 197.423 320.151 197.56 320.071L204.02 316.341C204.29 316.181 204.34 315.951 204.11 315.821L198.41 312.521C198.268 312.463 198.116 312.438 197.963 312.448C197.81 312.459 197.662 312.504 197.53 312.581H197.5ZM216.43 301.681L209.96 305.411C209.69 305.571 209.65 305.801 209.87 305.931L215.57 309.221C215.711 309.293 215.867 309.33 216.025 309.33C216.183 309.33 216.339 309.293 216.48 309.221L222.94 305.491C223.22 305.331 223.26 305.101 223.03 304.971L217.33 301.681C217.19 301.61 217.036 301.574 216.88 301.574C216.724 301.574 216.57 301.61 216.43 301.681ZM178.64 323.481L172.18 327.211C171.91 327.371 171.87 327.611 172.09 327.741L177.79 331.031C177.935 331.095 178.093 331.124 178.251 331.115C178.409 331.107 178.563 331.061 178.7 330.981L185.16 327.241C185.43 327.091 185.47 326.851 185.25 326.721L179.55 323.431C179.405 323.366 179.247 323.337 179.089 323.346C178.931 323.355 178.777 323.401 178.64 323.481ZM188.09 318.031L181.63 321.761C181.35 321.921 181.31 322.151 181.54 322.281L187.24 325.571C187.383 325.633 187.54 325.662 187.696 325.653C187.852 325.644 188.004 325.599 188.14 325.521L194.6 321.791C194.88 321.631 194.92 321.401 194.69 321.271L188.99 317.981C188.847 317.918 188.69 317.89 188.534 317.899C188.378 317.907 188.226 317.953 188.09 318.031ZM175.75 353.381L182.21 349.651C182.48 349.491 182.52 349.261 182.3 349.131L176.6 345.841C176.459 345.769 176.303 345.731 176.145 345.731C175.987 345.731 175.831 345.769 175.69 345.841L169.23 349.571C168.96 349.731 168.92 349.961 169.14 350.091L174.84 353.391C174.983 353.457 175.139 353.491 175.296 353.489C175.454 353.488 175.609 353.451 175.75 353.381ZM125.58 350.821L119.84 347.531C119.7 347.46 119.546 347.424 119.39 347.424C119.234 347.424 119.08 347.46 118.94 347.531L112.48 351.261C112.2 351.421 112.16 351.661 112.39 351.791L118.09 355.081C118.233 355.143 118.39 355.172 118.546 355.163C118.702 355.154 118.854 355.109 118.99 355.031L125.46 351.291C125.76 351.191 125.84 350.951 125.58 350.821ZM138.02 353.991L132.32 350.701C132.177 350.638 132.02 350.61 131.864 350.619C131.708 350.627 131.556 350.673 131.42 350.751L121.42 356.491C121.15 356.651 121.11 356.881 121.33 357.011L127.03 360.301C127.175 360.365 127.333 360.394 127.491 360.385C127.649 360.377 127.803 360.331 127.94 360.251L137.88 354.511C138.21 354.351 138.25 354.121 138.02 353.991ZM117.18 344.251L111.48 340.961C111.336 340.9 111.179 340.873 111.023 340.883C110.867 340.894 110.715 340.941 110.58 341.021L102.58 345.611C102.31 345.771 102.27 346.001 102.49 346.131L108.19 349.421C108.335 349.485 108.493 349.514 108.651 349.505C108.809 349.497 108.963 349.451 109.1 349.371L117.1 344.781C117.37 344.621 117.41 344.381 117.18 344.251ZM123.28 340.731C123.423 340.793 123.58 340.822 123.736 340.813C123.892 340.804 124.044 340.759 124.18 340.681L130.65 336.951C130.92 336.791 130.96 336.561 130.74 336.431L125.04 333.141C124.895 333.076 124.737 333.047 124.579 333.056C124.421 333.065 124.267 333.111 124.13 333.191L117.67 336.921C117.39 337.081 117.35 337.311 117.58 337.441L123.28 340.731ZM149.47 357.731L143.77 354.441C143.627 354.378 143.47 354.35 143.314 354.359C143.158 354.367 143.006 354.413 142.87 354.491L130.44 361.681C130.16 361.841 130.12 362.071 130.35 362.201L136.05 365.491C136.193 365.553 136.35 365.582 136.506 365.573C136.662 365.564 136.814 365.519 136.95 365.441L149.38 358.261C149.66 358.091 149.7 357.861 149.47 357.731ZM153.96 365.491L148.26 362.201C148.117 362.138 147.96 362.11 147.804 362.119C147.648 362.127 147.496 362.173 147.36 362.251L139.36 366.841C139.09 367.001 139.05 367.241 139.27 367.371L144.97 370.661C145.116 370.724 145.274 370.751 145.432 370.741C145.59 370.73 145.744 370.682 145.88 370.601L153.83 366.011C154.15 365.851 154.19 365.621 153.96 365.491ZM193.51 300.191C193.653 300.253 193.81 300.282 193.966 300.273C194.122 300.264 194.274 300.219 194.41 300.141L200.88 296.401C201.15 296.251 201.19 296.011 200.97 295.881L195.27 292.591C195.129 292.519 194.973 292.481 194.815 292.481C194.657 292.481 194.501 292.519 194.36 292.591L187.9 296.321C187.62 296.481 187.58 296.721 187.81 296.851L193.51 300.191ZM174.62 311.091C174.763 311.153 174.92 311.182 175.076 311.173C175.232 311.164 175.384 311.119 175.52 311.041L181.99 307.311C182.26 307.151 182.3 306.921 182.08 306.791L176.37 303.501C176.227 303.438 176.07 303.41 175.914 303.419C175.758 303.427 175.606 303.473 175.47 303.551L169.01 307.281C168.73 307.441 168.69 307.671 168.92 307.801L174.62 311.091ZM132.73 335.281C132.873 335.343 133.03 335.372 133.186 335.363C133.342 335.354 133.494 335.309 133.63 335.231L140.09 331.501C140.37 331.341 140.41 331.101 140.18 330.981L134.48 327.681C134.336 327.62 134.179 327.593 134.023 327.603C133.867 327.614 133.715 327.661 133.58 327.741L127.12 331.471C126.84 331.631 126.8 331.861 127.03 331.991L132.73 335.281ZM184.06 305.681C184.201 305.753 184.357 305.79 184.515 305.79C184.673 305.79 184.829 305.753 184.97 305.681L191.43 301.951C191.71 301.791 191.75 301.551 191.52 301.421L185.82 298.131C185.676 298.07 185.519 298.043 185.363 298.053C185.207 298.064 185.055 298.111 184.92 298.191L178.45 301.921C178.18 302.081 178.14 302.311 178.36 302.441L184.06 305.681ZM165.17 316.591C165.315 316.655 165.473 316.684 165.631 316.675C165.789 316.667 165.943 316.621 166.08 316.541L172.54 312.801C172.81 312.651 172.85 312.411 172.63 312.281L166.93 308.991C166.785 308.926 166.627 308.897 166.469 308.906C166.311 308.915 166.157 308.961 166.02 309.041L159.56 312.771C159.29 312.931 159.25 313.171 159.47 313.301L165.17 316.591ZM159.17 366.271C159.025 366.206 158.867 366.177 158.709 366.186C158.551 366.195 158.397 366.241 158.26 366.321L148.32 372.061C148.04 372.221 148 372.451 148.23 372.581L153.93 375.871C154.07 375.941 154.224 375.978 154.38 375.978C154.536 375.978 154.69 375.941 154.83 375.871L164.83 370.131C165.1 369.971 165.14 369.741 164.92 369.611L159.17 366.271ZM151.57 324.411C151.713 324.473 151.87 324.502 152.026 324.493C152.182 324.484 152.334 324.439 152.47 324.361L158.93 320.631C159.21 320.471 159.25 320.241 159.02 320.111L153.32 316.821C153.18 316.75 153.026 316.714 152.87 316.714C152.714 316.714 152.56 316.75 152.42 316.821L145.96 320.551C145.68 320.711 145.64 320.941 145.87 321.071L151.57 324.411ZM142.12 329.871C142.261 329.943 142.417 329.98 142.575 329.98C142.733 329.98 142.889 329.943 143.03 329.871L149.49 326.131C149.76 325.981 149.8 325.741 149.58 325.611L143.88 322.321C143.735 322.256 143.577 322.227 143.419 322.236C143.261 322.245 143.107 322.291 142.97 322.371L136.51 326.101C136.24 326.261 136.2 326.501 136.42 326.631L142.12 329.871ZM334.12 265.231C333.974 265.172 333.816 265.146 333.658 265.157C333.501 265.167 333.347 265.213 333.21 265.291L317.31 274.471C317.03 274.631 316.99 274.861 317.22 274.991L322.92 278.281C323.063 278.343 323.22 278.372 323.376 278.363C323.532 278.354 323.684 278.309 323.82 278.231L339.84 269.011C340.11 268.851 340.16 268.621 339.93 268.491L334.12 265.231ZM313.24 277.291C313.097 277.228 312.94 277.2 312.784 277.209C312.628 277.217 312.476 277.263 312.34 277.341L305.87 281.071C305.6 281.231 305.56 281.471 305.78 281.601L311.48 284.891C311.626 284.954 311.784 284.981 311.942 284.97C312.1 284.96 312.254 284.912 312.39 284.831L318.85 281.101C319.13 280.951 319.17 280.711 318.94 280.581L313.24 277.291ZM185.19 347.931L191.66 344.201C191.93 344.041 191.97 343.811 191.75 343.681L186.05 340.381C185.904 340.318 185.746 340.291 185.588 340.301C185.43 340.311 185.276 340.359 185.14 340.441L178.68 344.171C178.4 344.331 178.36 344.561 178.59 344.691L184.29 347.981C184.433 348.043 184.59 348.072 184.746 348.063C184.902 348.054 185.054 348.009 185.19 347.931ZM294.44 288.161C294.299 288.089 294.143 288.051 293.985 288.051C293.827 288.051 293.671 288.089 293.53 288.161L287.07 291.891C286.8 292.051 286.76 292.281 286.98 292.411L292.68 295.701C292.825 295.765 292.983 295.794 293.141 295.785C293.299 295.777 293.453 295.731 293.59 295.651L300.05 291.921C300.32 291.761 300.36 291.531 300.14 291.401L294.44 288.161ZM343.66 259.741C343.515 259.676 343.357 259.647 343.199 259.656C343.041 259.665 342.887 259.711 342.75 259.791L336.29 263.521C336.01 263.681 335.97 263.921 336.2 264.051L341.9 267.341C342.043 267.403 342.2 267.432 342.356 267.423C342.512 267.414 342.664 267.369 342.8 267.291L349.27 263.561C349.54 263.401 349.58 263.161 349.36 263.031L343.66 259.741ZM358.84 257.581L344.17 249.111C344.027 249.048 343.87 249.02 343.714 249.029C343.558 249.037 343.406 249.083 343.27 249.161L336.81 252.901C336.53 253.051 336.49 253.291 336.72 253.421L351.38 261.881C351.525 261.945 351.683 261.974 351.841 261.965C351.999 261.957 352.153 261.911 352.29 261.831L358.75 258.101C358.99 257.941 359.03 257.681 358.84 257.581ZM259.18 308.581C259.037 308.518 258.88 308.49 258.724 308.499C258.568 308.507 258.416 308.553 258.28 308.631L250.28 313.221C250.01 313.381 249.97 313.611 250.19 313.741L255.89 317.031C256.035 317.095 256.193 317.124 256.351 317.115C256.509 317.107 256.663 317.061 256.8 316.981L264.8 312.391C265.08 312.231 265.12 312.001 264.89 311.871L259.18 308.581ZM283.04 294.801C282.897 294.738 282.74 294.71 282.584 294.719C282.428 294.727 282.276 294.773 282.14 294.851L272.2 300.591C271.92 300.751 271.88 300.981 272.11 301.111L277.81 304.401C277.953 304.463 278.11 304.492 278.266 304.483C278.422 304.474 278.574 304.429 278.71 304.351L288.66 298.611C288.93 298.451 288.97 298.221 288.74 298.091L283.04 294.801ZM237.31 321.201C237.164 321.138 237.006 321.111 236.848 321.121C236.69 321.131 236.536 321.179 236.4 321.261L183.21 351.971C182.94 352.131 182.89 352.361 183.12 352.491L188.82 355.781C188.963 355.843 189.12 355.872 189.276 355.863C189.432 355.854 189.584 355.809 189.72 355.731L242.84 324.981C243.11 324.821 243.15 324.591 242.93 324.461L237.31 321.201ZM181.13 353.641C180.987 353.578 180.83 353.55 180.674 353.559C180.518 353.567 180.366 353.613 180.23 353.691L172.23 358.281C171.96 358.441 171.92 358.671 172.14 358.801L177.84 362.101C177.986 362.164 178.144 362.191 178.302 362.181C178.46 362.17 178.614 362.122 178.75 362.041L186.75 357.451C187.03 357.291 187.07 357.061 186.84 356.931L181.13 353.641ZM248.24 314.891C248.097 314.828 247.94 314.8 247.784 314.809C247.628 314.817 247.476 314.863 247.34 314.941L239.39 319.531C239.11 319.691 239.07 319.931 239.3 320.061L245 323.351C245.143 323.413 245.3 323.442 245.456 323.433C245.612 323.424 245.764 323.379 245.9 323.301L253.9 318.701C254.17 318.541 254.21 318.311 253.98 318.181L248.24 314.891ZM170.19 359.951C170.05 359.88 169.896 359.844 169.74 359.844C169.584 359.844 169.43 359.88 169.29 359.951L161.34 364.551C161.06 364.711 161.02 364.941 161.25 365.071L166.95 368.361C167.093 368.423 167.25 368.452 167.406 368.443C167.562 368.434 167.714 368.389 167.85 368.311L175.8 363.721C176.08 363.561 176.12 363.321 175.89 363.191L170.19 359.951ZM270.12 302.261C269.979 302.189 269.823 302.151 269.665 302.151C269.507 302.151 269.351 302.189 269.21 302.261L261.26 306.861C260.99 307.011 260.95 307.251 261.17 307.381L266.84 310.681C266.985 310.745 267.143 310.774 267.301 310.765C267.459 310.757 267.613 310.711 267.75 310.631L275.75 306.031C276.02 305.881 276.06 305.641 275.84 305.511L270.12 302.261ZM303.84 282.681C303.696 282.62 303.539 282.593 303.383 282.603C303.227 282.614 303.075 282.661 302.94 282.741L296.48 286.471C296.2 286.621 296.16 286.861 296.39 286.991L302.09 290.281C302.233 290.343 302.39 290.372 302.546 290.363C302.702 290.354 302.854 290.309 302.99 290.231L309.45 286.501C309.73 286.341 309.77 286.101 309.54 285.971L303.84 282.681ZM324.35 267.541L330.81 263.811C331.09 263.651 331.13 263.421 330.9 263.291L325.2 260.001C325.057 259.938 324.9 259.91 324.744 259.919C324.588 259.927 324.436 259.973 324.3 260.051L317.84 263.801C317.56 263.961 317.52 264.191 317.75 264.321L323.45 267.621C323.6 267.689 323.764 267.719 323.927 267.708C324.091 267.698 324.25 267.647 324.39 267.561L324.35 267.541ZM285.54 269.251L292 265.511C292.28 265.361 292.32 265.121 292.09 264.991L286.39 261.701C286.25 261.63 286.096 261.594 285.94 261.594C285.784 261.594 285.63 261.63 285.49 261.701L279.03 265.431C278.75 265.591 278.71 265.831 278.94 265.961L284.64 269.251C284.783 269.331 284.944 269.375 285.108 269.378C285.271 269.382 285.434 269.345 285.58 269.271L285.54 269.251ZM260.72 304.251L279.61 293.351C279.88 293.191 279.92 292.951 279.7 292.821L274 289.531C273.855 289.466 273.697 289.437 273.539 289.446C273.381 289.455 273.227 289.501 273.09 289.581L254.24 300.541C253.97 300.701 253.93 300.931 254.15 301.061L259.85 304.351C259.995 304.415 260.153 304.444 260.311 304.435C260.469 304.427 260.623 304.381 260.76 304.301L260.72 304.251ZM314 273.021C314.145 273.085 314.303 273.114 314.461 273.105C314.619 273.097 314.773 273.051 314.91 272.971L321.37 269.241C321.64 269.081 321.68 268.841 321.46 268.711L315.76 265.421C315.619 265.349 315.463 265.311 315.305 265.311C315.147 265.311 314.991 265.349 314.85 265.421L308.39 269.161C308.12 269.311 308.08 269.551 308.3 269.681L314 273.021ZM305.94 267.791L312.4 264.061C312.68 263.901 312.72 263.671 312.49 263.541L306.79 260.251C306.647 260.188 306.49 260.16 306.334 260.169C306.178 260.177 306.026 260.223 305.89 260.301L299.43 264.031C299.15 264.191 299.11 264.421 299.34 264.551L305.04 267.841C305.185 267.918 305.346 267.958 305.51 267.958C305.674 267.958 305.835 267.918 305.98 267.841L305.94 267.791ZM251.27 309.711L257.74 305.971C258.01 305.821 258.05 305.581 257.82 305.451L252.12 302.161C251.977 302.098 251.82 302.07 251.664 302.079C251.508 302.087 251.356 302.133 251.22 302.211L244.84 305.991C244.56 306.151 244.52 306.391 244.75 306.521L250.45 309.811C250.588 309.867 250.737 309.892 250.886 309.883C251.034 309.874 251.179 309.833 251.31 309.761L251.27 309.711ZM293.12 285.071C293.265 285.135 293.423 285.164 293.581 285.155C293.739 285.147 293.893 285.101 294.03 285.021L300.49 281.291C300.76 281.131 300.8 280.901 300.58 280.771L294.88 277.481C294.739 277.409 294.583 277.371 294.425 277.371C294.267 277.371 294.111 277.409 293.97 277.481L287.51 281.211C287.24 281.371 287.2 281.601 287.42 281.731L293.12 285.071ZM204.04 336.971L210.51 333.241C210.78 333.081 210.82 332.851 210.6 332.721L204.9 329.431C204.755 329.366 204.597 329.337 204.439 329.346C204.281 329.355 204.127 329.401 203.99 329.481L197.53 333.211C197.25 333.371 197.21 333.601 197.44 333.731L203.14 337.021C203.285 337.098 203.446 337.138 203.61 337.138C203.774 337.138 203.935 337.098 204.08 337.021L204.04 336.971ZM213.49 331.521L219.95 327.791C220.23 327.631 220.27 327.401 220.04 327.271L214.34 323.971C214.196 323.91 214.039 323.883 213.883 323.893C213.727 323.904 213.575 323.951 213.44 324.031L206.98 327.761C206.7 327.921 206.66 328.151 206.88 328.281L212.59 331.571C212.735 331.648 212.896 331.688 213.06 331.688C213.224 331.688 213.385 331.648 213.53 331.571L213.49 331.521ZM194.64 342.481L201.1 338.751C201.38 338.591 201.42 338.351 201.19 338.221L195.49 334.931C195.347 334.868 195.19 334.84 195.034 334.849C194.878 334.857 194.726 334.903 194.59 334.981L188.12 338.681C187.85 338.841 187.81 339.081 188.03 339.211L193.73 342.501C193.872 342.57 194.029 342.604 194.187 342.6C194.346 342.597 194.501 342.556 194.64 342.481ZM232.42 320.681L238.88 316.951C239.16 316.791 239.2 316.561 238.97 316.431L233.27 313.141C233.127 313.078 232.97 313.05 232.814 313.059C232.658 313.067 232.506 313.113 232.37 313.191L225.91 316.921C225.63 317.081 225.59 317.311 225.82 317.441L231.52 320.731C231.663 320.793 231.82 320.822 231.976 320.813C232.132 320.804 232.284 320.759 232.42 320.681ZM222.98 326.141L229.44 322.401C229.71 322.251 229.75 322.011 229.53 321.881L223.83 318.591C223.685 318.526 223.527 318.497 223.369 318.506C223.211 318.515 223.057 318.561 222.92 318.641L216.46 322.371C216.19 322.531 216.15 322.771 216.37 322.901L222.07 326.191C222.216 326.252 222.375 326.278 222.533 326.266C222.692 326.253 222.845 326.204 222.98 326.121V326.141ZM241.84 315.211L248.3 311.481C248.57 311.321 248.61 311.091 248.39 310.961L242.69 307.661C242.544 307.598 242.386 307.571 242.228 307.581C242.07 307.591 241.916 307.639 241.78 307.721L235.32 311.451C235.05 311.611 235.01 311.841 235.23 311.971L240.93 315.261C241.075 315.325 241.233 315.354 241.391 315.345C241.549 315.337 241.703 315.291 241.84 315.211ZM294.06 239.681C294.2 239.751 294.354 239.788 294.51 239.788C294.666 239.788 294.82 239.751 294.96 239.681L301.43 235.951C301.7 235.791 301.74 235.551 301.52 235.421L300 234.551C299.86 234.48 299.706 234.444 299.55 234.444C299.394 234.444 299.24 234.48 299.1 234.551L292.63 238.281C292.36 238.441 292.32 238.671 292.54 238.801L294.06 239.681ZM246.94 269.341C247.083 269.403 247.24 269.432 247.396 269.423C247.552 269.414 247.704 269.369 247.84 269.291L254.3 265.561C254.58 265.401 254.62 265.171 254.39 265.041L248.69 261.751C248.547 261.688 248.39 261.66 248.234 261.669C248.078 261.677 247.926 261.723 247.79 261.801L241.32 265.531C241.05 265.691 241.01 265.921 241.23 266.051L246.94 269.341ZM265.84 258.431C265.983 258.493 266.14 258.522 266.296 258.513C266.452 258.504 266.604 258.459 266.74 258.381L273.2 254.651C273.48 254.491 273.52 254.261 273.29 254.131L267.59 250.841C267.45 250.77 267.296 250.734 267.14 250.734C266.984 250.734 266.83 250.77 266.69 250.841L260.23 254.571C259.95 254.731 259.91 254.961 260.14 255.091L265.84 258.431ZM235.41 276.001C235.555 276.065 235.713 276.094 235.871 276.085C236.029 276.077 236.183 276.031 236.32 275.951L242.78 272.221C243.05 272.061 243.09 271.831 242.87 271.701L237.17 268.401C237.024 268.338 236.866 268.311 236.708 268.321C236.55 268.331 236.396 268.379 236.26 268.461L229.84 272.191C229.57 272.351 229.53 272.581 229.75 272.711L235.41 276.001ZM256.41 263.891C256.551 263.963 256.707 264 256.865 264C257.023 264 257.179 263.963 257.32 263.891L263.78 260.151C264.05 260.001 264.09 259.761 263.87 259.631L258.17 256.341C258.025 256.276 257.867 256.247 257.709 256.256C257.551 256.265 257.397 256.311 257.26 256.391L250.8 260.121C250.53 260.281 250.49 260.521 250.71 260.651L256.41 263.891ZM216.54 286.891C216.683 286.953 216.84 286.982 216.996 286.973C217.152 286.964 217.304 286.919 217.44 286.841L223.91 283.101C224.18 282.951 224.22 282.711 224 282.581L218.3 279.291C218.155 279.226 217.997 279.197 217.839 279.206C217.681 279.215 217.527 279.261 217.39 279.341L210.93 283.071C210.65 283.231 210.61 283.471 210.84 283.601L216.54 286.891ZM225.99 281.431C226.13 281.501 226.284 281.538 226.44 281.538C226.596 281.538 226.75 281.501 226.89 281.431L233.35 277.701C233.63 277.541 233.67 277.311 233.44 277.181L227.74 273.891C227.597 273.828 227.44 273.8 227.284 273.809C227.128 273.817 226.976 273.863 226.84 273.941L220.35 277.681C220.07 277.841 220.03 278.071 220.26 278.201L225.99 281.431ZM275.17 250.681C275.314 250.742 275.471 250.768 275.627 250.758C275.783 250.748 275.935 250.701 276.07 250.621L282.54 246.891C282.81 246.731 282.85 246.501 282.63 246.371L281.11 245.491C280.964 245.428 280.806 245.401 280.648 245.411C280.49 245.421 280.336 245.469 280.2 245.551L273.74 249.281C273.47 249.441 273.43 249.671 273.65 249.801L275.17 250.681ZM303.51 234.321C303.654 234.382 303.811 234.408 303.967 234.398C304.123 234.388 304.275 234.341 304.41 234.261L310.84 230.481C311.12 230.321 311.16 230.091 310.93 229.961L309.42 229.081C309.274 229.018 309.116 228.991 308.958 229.001C308.8 229.011 308.646 229.059 308.51 229.141L302.05 232.871C301.77 233.031 301.73 233.261 301.96 233.391L303.51 234.321ZM315.51 241.231C315.655 241.295 315.813 241.324 315.971 241.315C316.129 241.307 316.283 241.261 316.42 241.181L322.88 237.451C323.15 237.291 323.19 237.051 322.97 236.921L317.27 233.631C317.129 233.559 316.973 233.521 316.815 233.521C316.657 233.521 316.501 233.559 316.36 233.631L309.84 237.371C309.57 237.521 309.53 237.761 309.75 237.891L315.51 241.231ZM333.84 262.111L340.3 258.381C340.57 258.221 340.62 257.991 340.39 257.861L334.69 254.571C334.545 254.506 334.387 254.477 334.229 254.486C334.071 254.495 333.917 254.541 333.78 254.621L327.32 258.351C327.05 258.511 327.01 258.741 327.23 258.871L332.93 262.161C333.075 262.225 333.233 262.254 333.391 262.245C333.549 262.237 333.703 262.191 333.84 262.111ZM284.62 245.171C284.763 245.233 284.92 245.262 285.076 245.253C285.232 245.244 285.384 245.199 285.52 245.121L291.98 241.391C292.26 241.231 292.3 241.001 292.07 240.871L290.55 239.991C290.407 239.928 290.25 239.9 290.094 239.909C289.938 239.917 289.786 239.963 289.65 240.041L283.19 243.771C282.91 243.931 282.87 244.171 283.1 244.301L284.62 245.171ZM207.06 292.361C207.205 292.425 207.363 292.454 207.521 292.445C207.679 292.437 207.833 292.391 207.97 292.311L214.43 288.581C214.71 288.421 214.75 288.191 214.52 288.061L208.82 284.761C208.676 284.7 208.519 284.673 208.363 284.684C208.207 284.694 208.055 284.741 207.92 284.821L201.45 288.551C201.18 288.711 201.14 288.941 201.36 289.071L207.06 292.361Z" fill="#455A64"/>
<path d="M235.99 341.141L237.31 341.901L272.51 362.221L335.1 326.081L336.4 325.341L299.88 304.261L235.99 341.141Z" fill="#263238"/>
<path d="M334.52 326.421L299.88 306.441L237.89 342.241L272.51 362.221L334.52 326.421Z" fill="#37474F"/>
<path d="M374.06 48.1004C374.06 45.4704 373.14 43.6104 371.65 42.7404C370.16 41.8704 361.42 36.8204 359.9 35.9604C358.38 35.1004 356.33 35.2304 354.05 36.5504L190.84 130.81V184.81L202.54 191.56L365.74 97.3304C370.34 94.6804 374.06 88.2404 374.06 82.9304V48.1004Z" fill="#649CFF"/>
<path opacity="0.15" d="M374.63 48.1004C374.63 45.4704 373.71 43.6104 372.22 42.7404C370.73 41.8704 361.99 36.8204 360.48 35.9604C358.97 35.1004 356.9 35.2304 354.62 36.5504L191.36 130.81V184.81L203.06 191.56L366.32 97.3004C370.91 94.6504 374.63 88.2104 374.63 82.9004V48.1004Z" fill="black"/>
<path d="M365.74 43.3005C370.34 40.6505 374.06 42.8005 374.06 48.1005V82.9305C374.06 88.2405 370.34 94.6805 365.74 97.3305L202.49 191.59V137.59L365.74 43.3005Z" fill="#649CFF"/>
<path d="M364.07 92.8803C365.698 91.815 367.053 90.3822 368.026 88.6974C368.998 87.0125 369.562 85.1227 369.67 83.1803V51.0003C369.67 48.4603 367.88 47.4303 365.67 48.6903L205.78 141.08V184.34L364.07 92.8803Z" fill="#FAFAFA"/>
<path d="M233.64 157.68C233.64 157.937 233.582 158.19 233.47 158.42C233.385 158.629 233.239 158.807 233.05 158.93L230.29 160.52C230.233 160.573 230.158 160.602 230.08 160.602C230.002 160.602 229.927 160.573 229.87 160.52C229.744 160.37 229.683 160.176 229.7 159.98V151.44C229.757 150.723 229.597 150.005 229.24 149.38C228.93 148.97 228.45 148.96 227.79 149.38C227.129 149.764 226.62 150.365 226.35 151.08C226.047 151.91 225.898 152.787 225.91 153.67V162.21C225.908 162.471 225.846 162.727 225.73 162.96C225.639 163.166 225.494 163.342 225.31 163.47L222.55 165.06C222.493 165.113 222.418 165.142 222.34 165.142C222.262 165.142 222.187 165.113 222.13 165.06C222.004 164.91 221.943 164.716 221.96 164.52V142.26C221.964 142.004 222.022 141.752 222.13 141.52C222.215 141.312 222.361 141.134 222.55 141.01L225.31 139.41C225.369 139.362 225.443 139.335 225.52 139.335C225.597 139.335 225.671 139.362 225.73 139.41C225.796 139.483 225.846 139.568 225.877 139.661C225.908 139.754 225.919 139.853 225.91 139.95V147.14C226.218 146.431 226.607 145.76 227.07 145.14C227.545 144.444 228.166 143.861 228.89 143.43C229.474 143.066 230.135 142.844 230.82 142.78C231.093 142.757 231.368 142.792 231.627 142.884C231.886 142.975 232.122 143.121 232.32 143.31C232.812 143.82 233.157 144.452 233.32 145.14C233.582 146.2 233.7 147.29 233.67 148.38L233.64 157.68Z" fill="#455A64"/>
<path d="M241.23 147.34C241.196 147.711 241.272 148.083 241.45 148.41C241.59 148.6 241.84 148.61 242.17 148.41L243.93 147.41C243.987 147.361 244.06 147.333 244.135 147.333C244.21 147.333 244.283 147.361 244.34 147.41C244.406 147.483 244.456 147.568 244.487 147.661C244.518 147.754 244.529 147.853 244.52 147.95V151.36C244.517 151.618 244.456 151.871 244.34 152.1C244.264 152.312 244.12 152.491 243.93 152.61L241.84 153.81C241.278 154.171 240.636 154.387 239.97 154.44C239.444 154.473 238.927 154.297 238.53 153.95C238.086 153.525 237.768 152.985 237.61 152.39C237.37 151.549 237.259 150.676 237.28 149.8V144.13L235.66 145.06C235.603 145.113 235.528 145.142 235.45 145.142C235.372 145.142 235.297 145.113 235.24 145.06C235.114 144.91 235.053 144.716 235.07 144.52V141.11C235.075 140.855 235.133 140.603 235.24 140.37C235.325 140.162 235.471 139.984 235.66 139.86L237.28 138.92V133.42C237.283 133.163 237.344 132.91 237.46 132.68C237.542 132.473 237.685 132.295 237.87 132.17L240.64 130.58C240.696 130.528 240.769 130.5 240.845 130.5C240.921 130.5 240.994 130.528 241.05 130.58C241.115 130.654 241.164 130.739 241.195 130.832C241.226 130.925 241.238 131.023 241.23 131.12V136.68L243.71 135.25C243.766 135.198 243.839 135.17 243.915 135.17C243.991 135.17 244.064 135.198 244.12 135.25C244.185 135.324 244.234 135.409 244.265 135.502C244.296 135.595 244.308 135.693 244.3 135.79V139.2C244.298 139.461 244.236 139.717 244.12 139.95C244.039 140.158 243.896 140.336 243.71 140.46L241.23 141.89V147.34Z" fill="#455A64"/>
<path d="M251.62 141.34C251.586 141.711 251.662 142.083 251.84 142.41C251.987 142.61 252.227 142.61 252.56 142.41L254.32 141.41C254.377 141.361 254.449 141.333 254.525 141.333C254.6 141.333 254.673 141.361 254.73 141.41C254.796 141.483 254.846 141.568 254.877 141.661C254.908 141.754 254.919 141.853 254.91 141.951V145.36C254.907 145.618 254.846 145.871 254.73 146.1C254.654 146.312 254.51 146.491 254.32 146.61L252.24 147.811C251.674 148.17 251.028 148.386 250.36 148.44C249.834 148.473 249.317 148.297 248.92 147.951C248.476 147.525 248.158 146.985 248 146.391C247.765 145.548 247.653 144.675 247.67 143.8V138.13L246.05 139.061C245.996 139.115 245.922 139.145 245.845 139.145C245.768 139.145 245.694 139.115 245.64 139.061C245.574 138.988 245.524 138.903 245.493 138.81C245.462 138.717 245.45 138.618 245.46 138.52V135.11C245.464 134.853 245.525 134.6 245.64 134.37C245.721 134.163 245.864 133.984 246.05 133.86L247.67 132.921V127.421C247.67 127.164 247.729 126.911 247.84 126.68C247.925 126.472 248.071 126.294 248.26 126.171L251.02 124.58C251.078 124.53 251.153 124.502 251.23 124.502C251.307 124.502 251.382 124.53 251.44 124.58C251.562 124.733 251.623 124.926 251.61 125.12V130.68L254.09 129.251C254.147 129.198 254.222 129.169 254.3 129.169C254.378 129.169 254.453 129.198 254.51 129.251C254.636 129.401 254.697 129.595 254.68 129.79V133.19C254.676 133.45 254.618 133.705 254.51 133.94C254.422 134.148 254.276 134.325 254.09 134.451L251.61 135.88L251.62 141.34Z" fill="#455A64"/>
<path d="M263.66 141.581C263.315 141.79 262.936 141.939 262.54 142.021C262.267 142.082 261.983 142.082 261.71 142.021C261.488 141.967 261.282 141.86 261.11 141.711C260.966 141.58 260.836 141.436 260.72 141.281V148.471C260.716 148.728 260.655 148.981 260.54 149.211C260.464 149.422 260.32 149.601 260.13 149.721L257.36 151.321C257.303 151.37 257.231 151.398 257.155 151.398C257.08 151.398 257.007 151.37 256.95 151.321C256.885 151.25 256.835 151.166 256.804 151.075C256.773 150.983 256.761 150.887 256.77 150.791V128.571C256.774 128.313 256.835 128.061 256.95 127.831C257.032 127.623 257.175 127.445 257.36 127.321L260.02 125.791C260.077 125.741 260.15 125.713 260.225 125.713C260.301 125.713 260.373 125.741 260.43 125.791C260.496 125.863 260.546 125.948 260.577 126.041C260.608 126.134 260.62 126.233 260.61 126.331V127.101C260.74 126.801 260.88 126.491 261.04 126.151C261.195 125.798 261.386 125.463 261.61 125.151C261.852 124.805 262.13 124.487 262.44 124.201C262.808 123.854 263.218 123.555 263.66 123.311C264.222 122.959 264.86 122.746 265.52 122.691C265.798 122.667 266.078 122.702 266.341 122.794C266.605 122.885 266.846 123.03 267.05 123.221C267.557 123.717 267.926 124.338 268.12 125.021C268.423 126.053 268.575 127.124 268.57 128.201C268.57 128.531 268.57 128.981 268.57 129.561C268.57 130.141 268.57 130.561 268.57 130.941C268.552 132.186 268.401 133.427 268.12 134.641C267.874 135.677 267.515 136.683 267.05 137.641C266.654 138.483 266.138 139.264 265.52 139.961C264.99 140.596 264.362 141.143 263.66 141.581ZM264.66 132.841C264.71 132.212 264.71 131.58 264.66 130.951C264.659 130.326 264.486 129.714 264.16 129.181C263.87 128.771 263.38 128.751 262.69 129.181C262.371 129.367 262.09 129.611 261.86 129.901C261.618 130.203 261.423 130.54 261.28 130.901C261.123 131.244 260.999 131.603 260.91 131.971C260.829 132.326 260.772 132.687 260.74 133.051C260.74 133.401 260.74 133.801 260.74 134.261C260.74 134.721 260.74 135.091 260.74 135.411C260.768 135.709 260.825 136.003 260.91 136.291C260.986 136.531 261.112 136.752 261.28 136.941C261.353 137.025 261.441 137.094 261.541 137.144C261.64 137.194 261.749 137.223 261.86 137.231C262.156 137.234 262.446 137.147 262.69 136.981C263.369 136.6 263.89 135.991 264.16 135.261C264.452 134.486 264.614 133.668 264.64 132.841H264.66Z" fill="#455A64"/>
<path d="M274.66 122.16C274.657 122.416 274.599 122.669 274.49 122.9C274.405 123.109 274.259 123.287 274.07 123.41L271.2 125.07C271.141 125.119 271.067 125.146 270.99 125.146C270.913 125.146 270.839 125.119 270.78 125.07C270.716 124.997 270.667 124.911 270.638 124.818C270.609 124.725 270.599 124.627 270.61 124.53V120.08C270.609 119.824 270.667 119.571 270.78 119.34C270.865 119.132 271.012 118.954 271.2 118.83L274.07 117.17C274.129 117.122 274.203 117.095 274.28 117.095C274.357 117.095 274.431 117.122 274.49 117.17C274.616 117.321 274.677 117.515 274.66 117.71V122.16ZM274.66 133.98C274.655 134.236 274.597 134.488 274.49 134.72C274.405 134.929 274.259 135.107 274.07 135.23L271.2 136.89C271.141 136.939 271.067 136.966 270.99 136.966C270.913 136.966 270.839 136.939 270.78 136.89C270.717 136.816 270.67 136.73 270.641 136.638C270.611 136.545 270.601 136.447 270.61 136.35V131.92C270.61 131.664 270.668 131.411 270.78 131.18C270.865 130.972 271.012 130.794 271.2 130.67L274.07 129.01C274.129 128.962 274.203 128.935 274.28 128.935C274.357 128.935 274.431 128.962 274.49 129.01C274.612 129.163 274.673 129.355 274.66 129.55V133.98Z" fill="#455A64"/>
<path d="M283.78 104.1C283.856 103.795 283.967 103.5 284.11 103.22C284.249 102.931 284.472 102.691 284.75 102.53L287.46 100.96C287.508 100.921 287.568 100.9 287.63 100.9C287.692 100.9 287.752 100.921 287.8 100.96C287.855 101.019 287.896 101.089 287.922 101.164C287.948 101.24 287.957 101.321 287.95 101.4C287.945 101.512 287.928 101.622 287.9 101.73L280.52 133.3C280.444 133.593 280.34 133.878 280.21 134.15C280.068 134.452 279.838 134.703 279.55 134.87L276.84 136.44C276.793 136.481 276.732 136.504 276.67 136.504C276.608 136.504 276.547 136.481 276.5 136.44C276.446 136.382 276.404 136.312 276.378 136.236C276.352 136.161 276.343 136.08 276.35 136C276.355 135.889 276.372 135.778 276.4 135.67L283.78 104.1Z" fill="#455A64"/>
<path d="M291.3 99.7604C291.376 99.4555 291.487 99.1602 291.63 98.8804C291.769 98.5911 291.992 98.3506 292.27 98.1904L294.99 96.6204C295.037 96.5796 295.098 96.5571 295.16 96.5571C295.222 96.5571 295.283 96.5796 295.33 96.6204C295.382 96.6806 295.421 96.7505 295.445 96.8261C295.469 96.9017 295.477 96.9814 295.47 97.0604C295.465 97.1719 295.448 97.2825 295.42 97.3904L288.04 128.96C287.963 129.253 287.859 129.537 287.73 129.81C287.588 130.112 287.358 130.363 287.07 130.53L284.4 132.07C284.353 132.111 284.292 132.134 284.23 132.134C284.168 132.134 284.107 132.111 284.06 132.07C284.005 132.012 283.964 131.942 283.938 131.866C283.912 131.791 283.903 131.71 283.91 131.63C283.915 131.519 283.932 131.408 283.96 131.3L291.3 99.7604Z" fill="#455A64"/>
<path d="M305.84 99.3604C306.06 99.2304 306.23 99.2304 306.35 99.3604C306.46 99.473 306.543 99.61 306.59 99.7604L308.21 106.49L309.83 97.8904C309.889 97.657 309.97 97.4294 310.07 97.2104C310.176 96.974 310.354 96.7777 310.58 96.6504L313.3 95.0804C313.35 95.0333 313.416 95.0071 313.485 95.0071C313.554 95.0071 313.62 95.0333 313.67 95.0804C313.781 95.2144 313.835 95.3869 313.82 95.5604C313.83 95.6568 313.83 95.754 313.82 95.8504L310.33 113.49C310.281 113.731 310.208 113.965 310.11 114.19C310.005 114.424 309.831 114.62 309.61 114.75L307.11 116.19C306.89 116.32 306.73 116.32 306.63 116.19C306.525 116.059 306.443 115.91 306.39 115.75L304.83 109.57L303.28 117.57C303.221 117.815 303.137 118.053 303.03 118.28C302.939 118.514 302.769 118.708 302.55 118.83L300.05 120.28C299.83 120.4 299.67 120.41 299.56 120.28C299.445 120.157 299.365 120.005 299.33 119.84L295.84 106.23C295.835 106.144 295.835 106.057 295.84 105.97C295.838 105.741 295.893 105.514 296 105.31C296.074 105.123 296.203 104.963 296.37 104.85L299.09 103.28C299.31 103.16 299.47 103.15 299.59 103.28C299.705 103.39 299.787 103.528 299.83 103.68L301.45 110.41L303.08 101.81C303.132 101.575 303.212 101.346 303.32 101.13C303.422 100.895 303.597 100.698 303.82 100.57L305.84 99.3604Z" fill="#455A64"/>
<path d="M324.78 88.4005C325 88.2705 325.17 88.2705 325.28 88.4005C325.397 88.5081 325.48 88.6469 325.52 88.8005L327.15 95.5205L328.77 86.9305C328.819 86.6939 328.899 86.4651 329.01 86.2505C329.115 86.014 329.289 85.8151 329.51 85.6805L332.23 84.1205C332.283 84.0747 332.35 84.0496 332.42 84.0496C332.49 84.0496 332.557 84.0747 332.61 84.1205C332.721 84.2544 332.775 84.4269 332.76 84.6005C332.765 84.6937 332.765 84.7872 332.76 84.8805L329.27 102.52C329.224 102.766 329.147 103.005 329.04 103.23C328.942 103.465 328.77 103.662 328.55 103.79L326.05 105.23C325.83 105.36 325.67 105.36 325.57 105.23C325.458 105.102 325.373 104.953 325.32 104.79L323.77 98.6005L322.21 106.6C322.148 106.843 322.068 107.08 321.97 107.31C321.876 107.542 321.707 107.736 321.49 107.86L318.99 109.31C318.77 109.43 318.6 109.44 318.5 109.31C318.385 109.187 318.305 109.035 318.27 108.87L314.78 95.2505C314.775 95.1672 314.775 95.0837 314.78 95.0005C314.781 94.7689 314.832 94.5402 314.93 94.3305C315.009 94.1491 315.137 93.9934 315.3 93.8805L318.02 92.3105C318.24 92.1905 318.41 92.1805 318.53 92.3105C318.64 92.423 318.723 92.5601 318.77 92.7105L320.39 99.4405L322.01 90.8405C322.069 90.607 322.15 90.3795 322.25 90.1605C322.359 89.9259 322.537 89.7304 322.76 89.6005L324.78 88.4005Z" fill="#455A64"/>
<path d="M343.76 77.4403C343.98 77.3103 344.15 77.3103 344.27 77.4403C344.385 77.5489 344.468 77.6874 344.51 77.8403L346.13 84.5603L347.75 75.9603C347.809 75.7285 347.893 75.5039 348 75.2903C348.101 75.0516 348.277 74.8518 348.5 74.7203L351.22 73.1503C351.273 73.1089 351.338 73.0864 351.405 73.0864C351.472 73.0864 351.537 73.1089 351.59 73.1503C351.702 73.2878 351.756 73.4636 351.74 73.6403C351.75 73.7333 351.75 73.8272 351.74 73.9203L348.26 91.5603C348.209 91.8045 348.132 92.0426 348.03 92.2703C347.928 92.5031 347.752 92.6961 347.53 92.8203L345.03 94.2703C344.81 94.4003 344.65 94.4003 344.55 94.2703C344.447 94.1376 344.366 93.989 344.31 93.8303L342.73 87.6803L341.18 95.6803C341.118 95.9226 341.038 96.1599 340.94 96.3903C340.839 96.6208 340.667 96.8134 340.45 96.9403L337.95 98.3803C337.74 98.5103 337.57 98.5203 337.46 98.3803C337.351 98.2532 337.272 98.1027 337.23 97.9403L333.75 84.3203C333.74 84.2373 333.74 84.1533 333.75 84.0703C333.75 83.8374 333.804 83.6078 333.91 83.4003C333.986 83.2169 334.115 83.0602 334.28 82.9503L337 81.3803C337.22 81.2503 337.38 81.2503 337.5 81.3803C337.617 81.4879 337.7 81.6267 337.74 81.7803L339.36 88.5103L340.99 79.9103C341.04 79.6742 341.121 79.4456 341.23 79.2303C341.332 78.9945 341.507 78.7981 341.73 78.6703L343.76 77.4403Z" fill="#455A64"/>
<path d="M356.59 86.6805C356.588 86.9409 356.526 87.1973 356.41 87.4305C356.326 87.6369 356.184 87.8142 356 87.9405L353.13 89.5905C353.072 89.6411 352.997 89.669 352.92 89.669C352.843 89.669 352.768 89.6411 352.71 89.5905C352.645 89.5171 352.596 89.4315 352.565 89.3388C352.534 89.246 352.522 89.148 352.53 89.0505V84.5905C352.534 84.3334 352.595 84.0805 352.71 83.8505C352.791 83.6397 352.939 83.4609 353.13 83.3405L356 81.6805C356.057 81.6306 356.129 81.603 356.205 81.603C356.28 81.603 356.353 81.6306 356.41 81.6805C356.476 81.7529 356.526 81.8383 356.557 81.9314C356.588 82.0244 356.599 82.1229 356.59 82.2205V86.6805Z" fill="#455A64"/>
<path d="M195.28 121.83L195.2 121.78L175.2 109.9L175.09 109.83C166.28 104.51 154.52 105.35 141.88 113.61C116.47 130.2 97.11 170.43 98.64 203.47C99.4 219.94 105.2 231.52 113.98 236.93L114.06 236.98L134.06 248.86L134.15 248.92C142.96 254.25 154.73 253.42 167.39 245.15C192.79 228.57 212.15 188.33 210.63 155.29C209.84 138.82 204.06 127.25 195.28 121.83Z" fill="#37474F"/>
<path d="M133.41 248.46L114.04 236.98L113.96 236.91C105.18 231.49 99.38 219.91 98.62 203.47C97.94 188.73 101.42 172.58 107.72 157.73L107.85 157.4L127.73 169.61C121.42 184.45 117.95 200.61 118.63 215.35C119.36 231.47 124.94 242.9 133.41 248.46Z" fill="#263238"/>
<path d="M167.39 245.15C192.79 228.57 212.15 188.33 210.63 155.29C209.11 122.25 187.27 108.9 161.87 125.49C136.47 142.08 117.1 182.32 118.63 215.36C120.16 248.4 141.98 261.74 167.39 245.15Z" fill="#455A64"/>
<path d="M153.05 236.43C149.729 236.46 146.46 235.604 143.58 233.95C135.58 229.35 130.99 218.8 130.99 204.95C130.99 179.56 146.42 149.95 165.39 138.89C174.01 133.89 182.39 133.23 189.12 137.07C197.12 141.67 201.71 152.23 201.71 166.07C201.71 191.45 186.28 221.07 167.31 232.07C163.026 234.759 158.105 236.263 153.05 236.43ZM179.64 138.48C175.27 138.631 171.017 139.931 167.31 142.25C149.39 152.68 134.84 180.82 134.84 205C134.84 217.39 138.73 226.73 145.52 230.64C150.96 233.77 158.03 233.12 165.42 228.82C183.34 218.4 197.92 190.25 197.92 166.08C197.92 153.68 194.03 144.34 187.24 140.43C184.925 139.117 182.301 138.444 179.64 138.48Z" fill="#649CFF"/>
<path d="M153.04 172.95C148.897 172.981 144.867 171.594 141.62 169.02L143.39 166.76C149.24 171.34 157.13 171.14 165.63 166.2C174.43 161.08 182.7 151.59 188.92 139.49L191.47 140.8C185.01 153.39 176.34 163.29 167.07 168.68C162.851 171.314 158.011 172.788 153.04 172.95Z" fill="#649CFF"/>
<path d="M143.78 231.58L141.23 230.27C147.69 217.69 156.36 207.79 165.63 202.39C175.21 196.82 184.25 196.7 191.08 202.05L189.31 204.31C183.46 199.73 175.57 199.93 167.07 204.87C158.27 209.99 150 219.48 143.78 231.58Z" fill="#649CFF"/>
<path d="M162.65 233.01C161.284 233.003 159.944 232.63 158.77 231.93C152.03 228.06 147.84 214.08 147.84 195.47C147.84 169.8 155.66 145.16 165.63 139.36C166.857 138.557 168.283 138.111 169.749 138.072C171.215 138.033 172.663 138.403 173.93 139.14C180.67 143.02 184.86 156.99 184.86 175.6C184.86 201.27 177.04 225.91 167.07 231.72C165.736 232.532 164.211 232.977 162.65 233.01ZM170.05 140.93C168.986 140.954 167.948 141.269 167.05 141.84C158.18 146.99 150.69 171.55 150.69 195.47C150.69 215.17 155.46 226.73 160.18 229.47C161.013 229.952 161.964 230.188 162.925 230.151C163.886 230.114 164.817 229.805 165.61 229.26C174.48 224.1 181.97 199.54 181.97 175.62C181.97 155.92 177.2 144.36 172.48 141.62C171.745 141.181 170.907 140.943 170.05 140.93Z" fill="#649CFF"/>
<path d="M167.79 140.601H164.92V230.481H167.79V140.601Z" fill="#649CFF"/>
<path d="M197.551 164.607L130.987 203.307L132.422 205.775L198.986 167.075L197.551 164.607Z" fill="#649CFF"/>
<path d="M400.43 122.161C400.182 121.589 399.767 121.104 399.24 120.771L396.24 119.051C394.95 118.301 393.36 119.051 392.52 119.551L390.66 118.481C388.41 117.121 385.27 119.971 384.57 120.651L383.76 120.191C382.7 119.551 381.26 119.951 379.97 120.601V109.771C380.016 109.307 379.943 108.84 379.757 108.413C379.572 107.986 379.28 107.613 378.91 107.331H378.86L375.93 105.631C375.497 105.441 375.023 105.367 374.553 105.416C374.083 105.465 373.634 105.635 373.25 105.911C372.137 106.638 371.211 107.617 370.548 108.769C369.884 109.921 369.501 111.213 369.43 112.541V145.681C369.281 145.603 369.127 145.532 368.97 145.471C366.36 143.621 363.61 142.531 361.19 142.961C359.147 143.431 357.36 144.661 356.19 146.401C354.93 148.631 357.01 150.031 359.7 153.101C362.39 156.171 364.7 159.821 367.15 162.101C368.349 163.313 369.772 164.281 371.34 164.951V169.291L374.29 171.001L396.77 158.001V153.681C396.77 153.681 399.56 142.561 400.45 137.911C401.34 133.261 402.15 125.731 400.43 122.161Z" fill="#CC66E8"/>
<path opacity="0.8" d="M400.43 122.161C400.182 121.589 399.767 121.104 399.24 120.771L396.24 119.051C394.95 118.301 393.36 119.051 392.52 119.551L390.66 118.481C388.41 117.121 385.27 119.971 384.57 120.651L383.76 120.191C382.7 119.551 381.26 119.951 379.97 120.601V109.771C380.016 109.307 379.943 108.84 379.757 108.413C379.572 107.986 379.28 107.613 378.91 107.331H378.86L375.93 105.631C375.497 105.441 375.023 105.367 374.553 105.416C374.083 105.465 373.634 105.635 373.25 105.911C372.137 106.638 371.211 107.617 370.548 108.769C369.884 109.921 369.501 111.213 369.43 112.541V145.681C369.281 145.603 369.127 145.532 368.97 145.471C366.36 143.621 363.61 142.531 361.19 142.961C359.147 143.431 357.36 144.661 356.19 146.401C354.93 148.631 357.01 150.031 359.7 153.101C362.39 156.171 364.7 159.821 367.15 162.101C368.349 163.313 369.772 164.281 371.34 164.951V169.291L374.29 171.001L396.77 158.001V153.681C396.77 153.681 399.56 142.561 400.45 137.911C401.34 133.261 402.15 125.731 400.43 122.161Z" fill="white"/>
<path opacity="0.2" d="M380 120.681V124.351C380.888 123.581 381.857 122.91 382.89 122.351L380 120.681ZM393.58 119.081C393.233 119.222 392.898 119.393 392.58 119.591L393.58 120.151C394.205 120.502 394.699 121.046 394.99 121.701C395.507 121.289 396.079 120.952 396.69 120.701L393.58 119.081ZM386.58 119.081C385.862 119.539 385.192 120.068 384.58 120.661L386.52 121.791C386.56 121.808 386.597 121.832 386.63 121.861C386.93 122.016 387.19 122.239 387.39 122.511C388.019 121.879 388.713 121.316 389.46 120.831L386.58 119.081ZM369.39 112.491V145.681C370.428 146.195 371.415 146.804 372.34 147.501V114.191L369.39 112.491ZM370.08 163.831C367.65 161.571 365.3 157.901 362.64 154.831C360.12 151.941 358.11 150.531 358.94 148.521L355.94 146.811C355.12 148.811 357.11 150.231 359.64 153.131C362.17 156.031 364.64 159.841 367.08 162.131C368.281 163.34 369.704 164.308 371.27 164.981V169.331L374.27 171.031V166.681C372.698 166 371.275 165.018 370.08 163.791V163.831Z" fill="#CC66E8"/>
<path opacity="0.1" d="M380 120.681V124.351C380.889 123.582 381.858 122.912 382.89 122.351L380 120.681ZM393.58 119.081C393.232 119.225 392.898 119.399 392.58 119.601L393.58 120.151C394.202 120.505 394.696 121.048 394.99 121.701C395.507 121.289 396.079 120.952 396.69 120.701L393.58 119.081ZM386.58 119.081C385.862 119.539 385.192 120.068 384.58 120.661L386.52 121.791C386.56 121.808 386.597 121.832 386.63 121.861C386.93 122.016 387.19 122.239 387.39 122.511C388.019 121.879 388.713 121.316 389.46 120.831L386.58 119.081ZM369.39 112.491V145.681C370.428 146.195 371.415 146.804 372.34 147.501V114.191L369.39 112.491ZM369.6 163.831C367.17 161.571 364.82 157.901 362.16 154.831C359.64 151.941 357.63 150.531 358.46 148.521L355.46 146.811C354.64 148.811 356.63 150.231 359.16 153.131C361.69 156.031 364.16 159.841 366.61 162.131C367.809 163.343 369.232 164.311 370.8 164.981V169.331L373.75 171.031V166.681C372.192 165.995 370.783 165.014 369.6 163.791V163.831Z" fill="black"/>
<path d="M374.27 170.991V166.681C372.701 166.009 371.277 165.038 370.08 163.821C367.65 161.561 365.3 157.891 362.64 154.821C359.98 151.751 357.86 150.351 359.13 148.111C360.302 146.376 362.089 145.15 364.13 144.681C366.7 144.221 369.62 145.471 372.37 147.511V114.191C372.444 112.864 372.829 111.574 373.494 110.423C374.16 109.273 375.087 108.296 376.2 107.571C378.31 106.351 380.02 107.341 380.02 109.771V124.321C380.02 124.321 385.3 119.641 387.43 122.511C387.43 122.511 392.61 117.091 394.94 121.671C394.94 121.671 398.75 118.601 400.46 122.161C402.17 125.721 401.35 133.251 400.46 137.901C399.57 142.551 396.75 153.681 396.75 153.681V158.021L374.27 170.991Z" fill="#CC66E8"/>
<path opacity="0.65" d="M374.27 170.991V166.681C372.701 166.009 371.277 165.038 370.08 163.821C367.65 161.561 365.3 157.891 362.64 154.821C359.98 151.751 357.86 150.351 359.13 148.111C360.302 146.376 362.089 145.15 364.13 144.681C366.7 144.221 369.62 145.471 372.37 147.511V114.191C372.444 112.864 372.829 111.574 373.494 110.423C374.16 109.273 375.087 108.296 376.2 107.571C378.31 106.351 380.02 107.341 380.02 109.771V124.321C380.02 124.321 385.3 119.641 387.43 122.511C387.43 122.511 392.61 117.091 394.94 121.671C394.94 121.671 398.75 118.601 400.46 122.161C402.17 125.721 401.35 133.251 400.46 137.901C399.57 142.551 396.75 153.681 396.75 153.681V158.021L374.27 170.991Z" fill="white"/>
<g opacity="0.1">
<path opacity="0.1" d="M379.99 130.571C379.99 130.571 380.47 123.931 382.91 122.351H382.83C381.816 122.894 380.864 123.544 379.99 124.291V124.171C379.977 124.21 379.977 124.252 379.99 124.291V130.571Z" fill="black"/>
<path opacity="0.1" d="M387.4 122.511V128.581C387.4 128.581 388.07 122.341 389.47 120.831C388.722 121.316 388.028 121.879 387.4 122.511Z" fill="black"/>
<path opacity="0.1" d="M394.91 121.681V127.771C394.91 127.771 395.29 121.631 396.61 120.771C396.005 120.997 395.434 121.303 394.91 121.681Z" fill="black"/>
</g>
<path opacity="0.15" d="M324.37 296.08C307.1 304.69 299.26 313.73 308.2 320.08C317.14 326.43 341.47 335 341.47 335L344.66 345.68L380 325.27V313.16C380 313.16 358.19 298.16 349.68 295.22C341.17 292.28 334.49 291.04 324.37 296.08Z" fill="black"/>
<path d="M373.1 350.811C373.1 350.811 367.77 363.901 367.49 369.061C367.21 374.431 365.91 376.221 366.82 382.061C367.02 383.331 367.69 385.881 367.82 386.921C367.876 387.138 367.884 387.365 367.842 387.586C367.801 387.806 367.711 388.015 367.579 388.197C367.447 388.378 367.276 388.528 367.079 388.636C366.882 388.744 366.664 388.807 366.44 388.821C364.1 389.311 360.23 384.921 358.38 380.151C356.525 374.649 355.008 369.038 353.84 363.351C353.748 362.051 354.004 360.749 354.58 359.581C354.872 358.897 355.23 358.244 355.65 357.631C356.42 355.291 356.79 350.84 357.44 347.76L373.1 350.811Z" fill="#FFA8A7"/>
<path d="M349.24 368.25C348.933 368.798 348.72 369.393 348.61 370.01C348.61 371.08 350.98 374.62 351.93 375.9C353.272 377.643 353.898 379.832 353.68 382.02C353.54 385.45 355.06 388.76 357.27 391.59C360.316 395.275 364.405 397.953 369 399.27C374.67 401.01 376.67 398.17 376.67 398.17C376.67 398.17 378.42 395.44 377.37 394.32C376.32 393.2 349.24 368.25 349.24 368.25Z" fill="#263238"/>
<path d="M355.61 357.68C355.44 357.68 355.13 357.63 354.69 358.16C354.52 358.36 353.49 360.91 352.63 362.25C351.77 363.59 349.52 366.13 349.24 368.3C350.55 372.5 354.49 375.42 355.08 379.39C355.67 383.36 355.74 387.95 361.83 392.81C367.92 397.67 374.19 398.16 376.44 396.87C378.69 395.58 378.44 393.18 375.35 388.58C372.02 383.71 369.77 373.14 369.77 373.13C369.478 371.648 369.281 370.148 369.18 368.64C369.211 367.149 369.352 365.662 369.6 364.19C369.721 363.511 369.623 362.811 369.32 362.19C368.892 361.641 368.305 361.236 367.64 361.03C366.641 360.559 365.59 360.203 364.51 359.97C363.423 359.739 362.29 359.876 361.29 360.36C360.646 360.822 359.978 361.249 359.29 361.64C358.791 361.843 358.244 361.9 357.714 361.806C357.183 361.713 356.69 361.471 356.29 361.11C355.886 360.793 355.59 360.358 355.445 359.865C355.3 359.372 355.312 358.846 355.48 358.36C355.511 358.132 355.555 357.905 355.61 357.68Z" fill="#455A64"/>
<path d="M358.27 388.87C359.165 387.343 360.461 386.09 362.018 385.248C363.574 384.405 365.332 384.005 367.1 384.09C373.57 384.09 375.81 387.41 376.79 389.34C377.97 391.65 379.19 395.83 376.52 397.03C373.63 398.32 370.29 397.92 365.04 395.29C359.79 392.66 358.27 388.87 358.27 388.87Z" fill="#FAFAFA"/>
<path d="M359.45 369.381C359.542 369.425 359.643 369.448 359.745 369.448C359.847 369.448 359.948 369.425 360.04 369.381C361.04 368.871 366.33 367.771 369.41 370.621C369.8 370.301 369.72 369.721 369.21 368.901C365.61 366.611 360.6 367.631 359.4 368.241C359.325 368.278 359.258 368.331 359.204 368.396C359.15 368.46 359.11 368.535 359.087 368.616C359.064 368.697 359.057 368.781 359.068 368.865C359.079 368.948 359.107 369.029 359.15 369.101C359.217 369.224 359.322 369.322 359.45 369.381Z" fill="#FAFAFA"/>
<path d="M370.07 374.39C370.153 374.086 370.163 373.765 370.099 373.456C370.035 373.147 369.898 372.857 369.7 372.61C368.242 371.928 366.662 371.543 365.053 371.477C363.444 371.412 361.839 371.668 360.33 372.23C360.257 372.27 360.192 372.324 360.14 372.389C360.088 372.454 360.049 372.528 360.026 372.608C360.002 372.688 359.995 372.772 360.004 372.855C360.014 372.938 360.039 373.018 360.08 373.09C360.152 373.213 360.261 373.311 360.39 373.37C360.481 373.417 360.582 373.441 360.685 373.441C360.788 373.441 360.889 373.417 360.98 373.37C361.95 372.88 366.96 371.83 370.07 374.39Z" fill="#FAFAFA"/>
<path d="M372.71 383.131C372.714 382.278 372.42 381.45 371.88 380.79C368.29 378.62 363.4 379.62 362.21 380.23C362.136 380.269 362.07 380.323 362.017 380.387C361.964 380.452 361.925 380.527 361.901 380.607C361.878 380.687 361.871 380.772 361.881 380.855C361.891 380.938 361.918 381.018 361.96 381.091C362.045 381.242 362.184 381.355 362.349 381.407C362.515 381.459 362.694 381.446 362.85 381.371C363.91 380.831 369.74 379.681 372.71 383.131Z" fill="#FAFAFA"/>
<path d="M361.32 377.37C361.412 377.415 361.513 377.438 361.615 377.438C361.717 377.438 361.818 377.415 361.91 377.37C362.91 376.86 368.08 375.79 371.18 378.52C371.241 378.182 371.225 377.834 371.131 377.503C371.037 377.172 370.869 376.867 370.64 376.61C369.182 375.928 367.602 375.543 365.993 375.477C364.384 375.412 362.779 375.668 361.27 376.23C361.197 376.27 361.132 376.324 361.08 376.389C361.028 376.454 360.989 376.528 360.966 376.608C360.942 376.688 360.935 376.772 360.945 376.855C360.954 376.938 360.98 377.018 361.02 377.09C361.088 377.213 361.193 377.311 361.32 377.37Z" fill="#FAFAFA"/>
<path d="M378.84 366.881C378.84 366.881 381.49 382.881 384.43 389.031C387.37 395.181 388.89 398.211 392.94 402.901C393.82 403.901 395.83 405.811 396.55 406.641C396.721 406.803 396.854 407.001 396.939 407.22C397.024 407.44 397.06 407.676 397.044 407.911C397.028 408.146 396.96 408.374 396.845 408.58C396.73 408.786 396.571 408.963 396.38 409.101C394.58 410.821 386.94 411.231 382.66 408.021C378.38 404.811 374.48 398.021 371.92 395.391C370.92 394.391 370.06 393.391 369.2 392.391C368.34 391.391 368.6 390.391 368.53 389.271C368.53 388.721 368.53 387.221 368.53 387.221C367.94 384.531 366.36 380.321 365.53 377.701L378.84 366.881Z" fill="#FFA8A7"/>
<path d="M367.07 399.26C367.024 399.917 367.091 400.577 367.27 401.211C367.69 402.211 371.56 404.511 373.04 405.301C375.081 406.352 376.646 408.139 377.42 410.301C378.83 413.611 381.74 416.061 385.1 417.751C389.629 419.872 394.696 420.57 399.63 419.751C405.77 418.871 406.39 415.29 406.39 415.29C406.39 415.29 406.84 411.92 405.34 411.29C403.84 410.66 367.07 399.26 367.07 399.26Z" fill="#263238"/>
<path d="M368.36 386.37C368.2 386.44 367.89 386.53 367.7 387.23C367.64 387.5 367.8 390.37 367.58 392.02C367.36 393.67 366.37 397.07 367.07 399.26C370.19 402.65 375.22 403.65 377.55 407.14C379.88 410.63 382 414.95 389.94 416.82C397.88 418.69 404.02 416.37 405.58 414.15C407.14 411.93 405.86 409.74 400.84 406.79C395.51 403.68 388.67 394.68 388.66 394.68C387.723 393.402 386.868 392.066 386.1 390.68C385.458 389.26 384.926 387.793 384.51 386.29C384.319 385.588 383.909 384.965 383.34 384.51C382.693 384.179 381.959 384.056 381.24 384.16C380.082 384.159 378.928 384.29 377.8 384.55C376.665 384.817 375.652 385.454 374.92 386.36C374.516 387.091 374.072 387.799 373.59 388.48C373.207 388.893 372.717 389.189 372.174 389.336C371.631 389.482 371.058 389.474 370.52 389.31C369.995 389.192 369.519 388.913 369.16 388.511C368.802 388.11 368.578 387.606 368.52 387.07C368.453 386.84 368.4 386.607 368.36 386.37Z" fill="#455A64"/>
<path d="M384.84 414.73C385.008 412.888 385.676 411.126 386.772 409.635C387.868 408.144 389.351 406.98 391.06 406.27C397.2 403.4 400.79 405.52 402.58 406.91C404.72 408.57 407.74 411.98 405.75 414.31C403.6 416.82 400.26 417.93 394.11 417.79C387.96 417.65 384.84 414.73 384.84 414.73Z" fill="#FAFAFA"/>
<path d="M377.24 395.761C377.347 395.763 377.453 395.741 377.55 395.696C377.647 395.651 377.733 395.584 377.8 395.501C378.51 394.571 383.02 391.161 387.21 392.501C387.45 392.021 387.11 391.501 386.26 390.951C381.83 390.391 377.55 393.601 376.68 394.721C376.625 394.789 376.586 394.869 376.564 394.954C376.542 395.038 376.537 395.127 376.552 395.214C376.566 395.3 376.598 395.383 376.646 395.457C376.694 395.53 376.756 395.593 376.83 395.641C376.95 395.724 377.094 395.766 377.24 395.761Z" fill="#FAFAFA"/>
<path d="M389.53 395.761C389.469 395.436 389.333 395.129 389.134 394.866C388.934 394.602 388.676 394.388 388.38 394.241C384.16 394.011 380.19 397.001 379.38 398.071C379.327 398.141 379.288 398.221 379.267 398.306C379.245 398.392 379.241 398.481 379.255 398.568C379.27 398.655 379.301 398.738 379.348 398.812C379.395 398.887 379.457 398.951 379.53 399.001C379.649 399.087 379.793 399.132 379.94 399.131C380.048 399.131 380.154 399.107 380.251 399.06C380.348 399.013 380.433 398.945 380.5 398.861C381.17 397.961 385.45 394.731 389.53 395.761Z" fill="#FAFAFA"/>
<path d="M395.93 402.851C395.553 402.043 394.905 401.392 394.1 401.01C389.74 400.56 385.56 403.69 384.7 404.8C384.647 404.871 384.608 404.951 384.587 405.036C384.565 405.122 384.561 405.211 384.575 405.298C384.589 405.385 384.621 405.468 384.668 405.542C384.715 405.617 384.777 405.681 384.85 405.73C384.971 405.812 385.114 405.858 385.26 405.86C385.368 405.861 385.474 405.837 385.571 405.79C385.668 405.743 385.753 405.675 385.82 405.59C386.58 404.61 391.56 400.871 395.93 402.851Z" fill="#FAFAFA"/>
<path d="M382.59 402.491C382.695 402.492 382.8 402.47 382.895 402.424C382.991 402.379 383.074 402.313 383.14 402.231C383.85 401.311 388.27 397.971 392.42 399.181C392.328 398.833 392.158 398.51 391.922 398.238C391.686 397.966 391.391 397.751 391.06 397.611C389.38 397.618 387.719 397.961 386.174 398.618C384.628 399.276 383.23 400.235 382.06 401.441C382.006 401.509 381.967 401.588 381.945 401.672C381.923 401.757 381.919 401.845 381.932 401.931C381.945 402.017 381.975 402.099 382.022 402.173C382.068 402.247 382.128 402.311 382.2 402.361C382.315 402.441 382.45 402.486 382.59 402.491Z" fill="#FAFAFA"/>
<path d="M343.64 276C350.18 280.79 372.97 293.95 382.22 302.51C384.9 304.99 385.78 308.24 385.12 315.34C384.23 324.98 376.66 357.81 376.66 357.81C375.61 359.66 373.78 356.15 373.78 356.15L337.67 310.31L343.64 276Z" fill="#649CFF"/>
<path opacity="0.3" d="M343.64 276C350.18 280.79 372.97 293.95 382.22 302.51C384.9 304.99 385.78 308.24 385.12 315.34C384.23 324.98 376.66 357.81 376.66 357.81C375.61 359.66 373.78 356.15 373.78 356.15L337.67 310.31L343.64 276Z" fill="black"/>
<path opacity="0.3" d="M375.09 347.59C366.74 340.59 339.75 298.02 339.75 298.02C343.43 294.92 345.32 284.15 345.32 284.15C346.78 288.3 345.24 294.57 344.11 296.86C346.23 298.7 358.24 308.57 366.58 315.17C369.145 316.935 370.924 319.628 371.54 322.68C373.26 331.68 375.29 345.76 375.09 347.59Z" fill="black"/>
<path d="M343.64 276L297.16 286.29C299.43 294.82 300.08 299.23 302.45 303.72C304.82 308.21 307.45 313.03 319.55 318.99C331.19 324.72 345.4 330.62 348.25 331.99C350.39 332.99 351.41 337.3 352.38 342.86C353.38 348.68 353.49 353.25 359.26 365.48C364.9 377.48 366.06 380.04 366.06 380.04C366.06 380.04 374.79 380.95 380.59 375.85C380.59 375.85 372.68 334.78 370.99 327.39C370.05 323.26 369.99 321.09 364.9 316.55C360.51 312.66 340.9 297.8 340.9 297.8C340.9 297.8 348.67 287.31 343.64 276Z" fill="#649CFF"/>
<path opacity="0.3" d="M343.64 275.871L297.16 286.161C299.43 294.691 300.08 299.101 302.45 303.591C304.82 308.081 307.45 312.911 319.55 318.861C331.19 324.591 345.4 330.491 348.25 331.861C350.39 332.861 351.41 337.161 352.38 342.721C353.38 348.551 353.49 353.111 359.26 365.341C364.9 377.341 366.06 379.911 366.06 379.911C366.06 379.911 374.79 380.811 380.59 375.711C380.59 375.711 372.68 334.651 370.99 327.251C370.05 323.121 369.99 320.951 364.9 316.411C360.51 312.521 340.9 297.661 340.9 297.661C340.9 297.661 348.67 287.181 343.64 275.871Z" fill="black"/>
<path d="M397.07 198.78C396.272 198.731 395.475 198.894 394.76 199.25C393.931 199.686 393.144 200.198 392.41 200.78C391.25 201.64 390.07 202.44 388.85 203.21C387.804 203.989 386.615 204.553 385.35 204.87C384.92 204.94 384 204.95 384.47 204.3C385.13 203.485 385.716 202.611 386.22 201.69C386.469 201.236 386.621 200.734 386.666 200.218C386.711 199.701 386.648 199.181 386.48 198.69C386.377 198.39 386.167 198.137 385.89 197.98C385.48 197.79 385.27 197.98 385.04 198.28C384.781 198.552 384.508 198.809 384.22 199.05C383.64 199.56 383.06 200.05 382.49 200.59C379.14 203.59 375.07 206.26 373.64 210.65C372.819 213.356 372.421 216.173 372.46 219C372.46 223.82 372.14 240.59 372.14 240.59C372.14 240.59 358.82 229.38 353.05 224.59C350.26 222.26 346.37 219.43 342.05 219.02C339.05 218.74 337.24 218.75 337.24 218.75L346.33 240.75C346.33 240.75 363.5 253.53 371.74 257.93C379.17 261.93 382.79 259.04 383.69 256.93C385.18 253.47 386.69 251.85 384.61 232.57C384.46 231.08 384.27 226.81 384.1 225.32C383.89 222.21 384.24 219.05 385.45 218.37C387.691 217.168 389.803 215.737 391.75 214.1C393.022 213.004 394.142 211.743 395.08 210.35C395.61 209.724 395.998 208.99 396.22 208.2C396.145 207.466 396.145 206.725 396.22 205.99C396.37 205.51 396.7 205.11 396.82 204.59C397.07 203.52 396.98 202.3 397.65 201.38C398.03 200.88 398.65 200.38 398.56 199.8C398.491 199.558 398.353 199.342 398.163 199.177C397.973 199.012 397.739 198.905 397.49 198.87C397.352 198.831 397.212 198.801 397.07 198.78Z" fill="#FFA8A7"/>
<path d="M383.48 207.15C383 209.744 381.797 212.15 380.01 214.09C381.238 213.364 382.255 212.33 382.96 211.09C383.92 209.11 383.84 208.1 383.48 207.15Z" fill="#F28F8F"/>
<path d="M336.35 218.24C340.99 218.44 344.6 218.54 348.56 220.83C352.52 223.12 370.16 237.89 370.16 237.89C370.16 237.89 370.34 230.36 370.79 226.4C371.1 223.65 371.56 222.79 372.42 222.92C372.42 222.92 373.95 225.27 378.28 225.6C382.61 225.93 384.08 224.12 384.08 224.12C384.08 224.12 385.35 223.82 385.8 225.6C386.25 227.38 387.07 246.6 386.28 252.13C385.49 257.66 383.01 260.24 379.68 261.02C376.35 261.8 368.68 257.13 359.39 250.91C350.1 244.69 340.08 238.91 340.08 238.91L336.35 218.24Z" fill="#649CFF"/>
<path opacity="0.7" d="M336.35 218.24C340.99 218.44 344.6 218.54 348.56 220.83C352.52 223.12 370.16 237.89 370.16 237.89C370.16 237.89 370.34 230.36 370.79 226.4C371.1 223.65 371.56 222.79 372.42 222.92C372.42 222.92 373.95 225.27 378.28 225.6C382.61 225.93 384.08 224.12 384.08 224.12C384.08 224.12 385.35 223.82 385.8 225.6C386.25 227.38 387.07 246.6 386.28 252.13C385.49 257.66 383.01 260.24 379.68 261.02C376.35 261.8 368.68 257.13 359.39 250.91C350.1 244.69 340.08 238.91 340.08 238.91L336.35 218.24Z" fill="white"/>
<path opacity="0.1" d="M370.16 237.891C369.754 241.483 369.886 245.117 370.55 248.671C370.55 248.671 367.16 242.131 368.2 236.141L370.16 237.891Z" fill="black"/>
<path d="M298.24 222.301C297.47 226.301 289.78 264.851 298.53 293.561C314.3 295.421 341.98 288.181 346.13 277.751C346.13 277.751 343.34 267.851 342.13 263.001C342.39 255.061 342.13 239.901 341.97 235.211C341.65 225.921 340.2 218.731 335.59 218.051C335.59 218.051 326.33 217.691 320.73 217.921C315.89 218.111 312.25 218.171 312.25 218.171L298.24 222.301Z" fill="#FAFAFA"/>
<path d="M321.39 283.49C320.39 281.23 301.66 269.68 301.66 269.68C301.66 269.68 301.95 264.33 303.06 254.48C304.17 244.63 304.51 232.83 300.96 226.9L297.38 227.04C295.38 238.99 291.24 269.65 298.53 293.56C306.94 294.56 318.73 292.95 328.53 289.67C326.73 288.45 322.2 285.29 321.39 283.49Z" fill="#F0F0F0"/>
<path d="M310.62 209.13C310.62 207.13 306.83 201.191 305.1 196.481C302.21 188.611 301.96 181.541 309.1 178.481C309.1 178.481 313.56 170.791 324.81 170.401C336.06 170.011 344.69 179.511 340.96 192.201L310.62 209.13Z" fill="#455A64"/>
<path d="M313.4 196.971C311.93 196.971 311.4 194.861 310.4 193.731C309.933 193.28 309.37 192.939 308.754 192.733C308.138 192.528 307.484 192.463 306.839 192.544C306.195 192.624 305.576 192.848 305.03 193.199C304.483 193.55 304.022 194.018 303.68 194.571C301.6 197.571 303.62 201.911 305.89 203.571C308.74 205.691 310.71 203.651 310.71 203.651L310.45 219.541C310.45 219.541 310.96 223.061 317.45 225.111C324.95 227.471 331.05 223.521 326.58 218.581L326.75 214.391C329.127 214.934 331.578 215.069 334 214.791C336.5 214.411 338.5 212.531 339.78 208.671C342.29 201.151 341.6 191.111 339.01 181.951C336.53 183.951 325.09 187.581 314.78 183.951C315.13 190.281 314.84 196.971 313.4 196.971Z" fill="#FFA8A7"/>
<path d="M309.32 201.881C309.32 202.065 309.265 202.244 309.163 202.397C309.061 202.55 308.916 202.669 308.746 202.74C308.576 202.81 308.389 202.829 308.209 202.793C308.028 202.757 307.862 202.668 307.732 202.538C307.602 202.408 307.514 202.243 307.478 202.062C307.442 201.882 307.46 201.695 307.531 201.525C307.601 201.355 307.72 201.21 307.873 201.107C308.026 201.005 308.206 200.951 308.39 200.951C308.512 200.951 308.633 200.975 308.746 201.021C308.859 201.068 308.961 201.137 309.048 201.223C309.134 201.309 309.202 201.412 309.249 201.525C309.296 201.638 309.32 201.759 309.32 201.881Z" fill="#263238"/>
<path d="M326.74 214.4C326.74 214.4 320.48 212.57 318.02 210.84C316.401 209.721 315.082 208.22 314.18 206.47C314.727 208.381 315.622 210.174 316.82 211.76C319.82 215.15 326.66 216.76 326.66 216.76L326.74 214.4Z" fill="#F28F8F"/>
<path d="M326.24 196.891C326.232 197.196 326.135 197.492 325.96 197.743C325.785 197.993 325.54 198.187 325.257 198.3C324.973 198.413 324.662 198.44 324.363 198.378C324.064 198.315 323.789 198.167 323.574 197.95C323.359 197.733 323.212 197.458 323.151 197.158C323.091 196.859 323.12 196.548 323.234 196.265C323.349 195.982 323.544 195.739 323.796 195.565C324.048 195.392 324.344 195.297 324.65 195.291C324.86 195.291 325.067 195.332 325.261 195.413C325.454 195.493 325.63 195.611 325.778 195.76C325.926 195.908 326.043 196.085 326.122 196.279C326.201 196.473 326.241 196.681 326.24 196.891Z" fill="#263238"/>
<path d="M324.53 191.57L321.17 193.35C320.941 192.888 320.9 192.356 321.055 191.864C321.209 191.372 321.548 190.959 322 190.71C322.222 190.595 322.464 190.526 322.713 190.507C322.962 190.488 323.212 190.52 323.449 190.6C323.685 190.681 323.903 190.808 324.089 190.975C324.274 191.142 324.425 191.344 324.53 191.57Z" fill="#263238"/>
<path d="M325.75 205.071L331.1 206.781C330.841 207.491 330.323 208.077 329.65 208.422C328.977 208.767 328.198 208.845 327.47 208.641C327.118 208.526 326.792 208.342 326.513 208.098C326.234 207.855 326.007 207.557 325.847 207.223C325.686 206.89 325.594 206.527 325.578 206.157C325.561 205.787 325.62 205.417 325.75 205.071Z" fill="#F28F8F"/>
<path d="M338.94 191.51L335.25 190.51C335.305 190.267 335.408 190.037 335.554 189.835C335.701 189.632 335.887 189.462 336.101 189.334C336.315 189.206 336.553 189.122 336.801 189.089C337.048 189.056 337.3 189.073 337.54 189.14C338.032 189.281 338.452 189.605 338.713 190.046C338.973 190.487 339.054 191.011 338.94 191.51Z" fill="#263238"/>
<path d="M337.99 195.681C337.982 195.986 337.885 196.282 337.71 196.533C337.535 196.783 337.29 196.977 337.007 197.09C336.723 197.203 336.412 197.23 336.113 197.168C335.814 197.105 335.539 196.957 335.324 196.74C335.109 196.523 334.962 196.248 334.901 195.949C334.841 195.649 334.87 195.338 334.984 195.055C335.099 194.772 335.294 194.529 335.546 194.355C335.798 194.182 336.094 194.087 336.4 194.081C336.61 194.081 336.817 194.122 337.011 194.203C337.204 194.283 337.38 194.401 337.528 194.55C337.676 194.699 337.793 194.875 337.872 195.069C337.951 195.263 337.991 195.471 337.99 195.681Z" fill="#263238"/>
<path d="M339.71 181.961C343.17 179.501 345.09 176.201 344.17 171.671C342.82 173.021 339.04 173.271 335.74 171.671C330.518 168.941 324.522 168.074 318.74 169.211C312.63 170.401 309.05 175.041 309.05 178.461C310.25 180.901 311.89 182.201 314.73 183.931C319.001 187.015 324.213 188.514 329.47 188.171C332.628 188.094 335.674 186.992 338.15 185.031C338.15 185.031 334.96 185.311 333.46 184.321C335.682 183.968 337.809 183.165 339.71 181.961Z" fill="#37474F"/>
<path d="M331.29 203.09L336.06 200.91L329.97 192.5L331.29 203.09Z" fill="#F28F8F"/>
<path opacity="0.15" d="M383.67 304.21C383.258 303.59 382.775 303.019 382.23 302.51C376.67 297.37 366.23 290.57 357.36 284.92L317 308.22C316.944 308.253 316.897 308.3 316.865 308.356C316.833 308.412 316.816 308.476 316.816 308.54C316.816 308.605 316.833 308.669 316.865 308.725C316.897 308.781 316.944 308.828 317 308.86L346.31 325.79L383.67 304.21Z" fill="black"/>
<path d="M395.91 292.371V293.021C395.91 293.491 395.786 293.953 395.551 294.36C395.316 294.767 394.977 295.105 394.57 295.341L347.65 322.431C347.243 322.667 346.781 322.791 346.31 322.791C345.836 322.79 345.371 322.666 344.96 322.431L319.39 307.681C318.984 307.444 318.647 307.105 318.412 306.699C318.177 306.292 318.052 305.83 318.05 305.361V304.451C318.048 304.511 318.063 304.572 318.093 304.625C318.123 304.678 318.167 304.721 318.22 304.751L346.3 320.971L395.91 292.371Z" fill="#37474F"/>
<path d="M346.31 321V322.79C346.781 322.791 347.243 322.666 347.65 322.43L394.57 295.34C394.977 295.105 395.316 294.767 395.551 294.36C395.786 293.953 395.91 293.491 395.91 293.02V292.36L346.31 321Z" fill="#263238"/>
<path d="M395.91 292.361L368.09 276.301C367.846 276.163 367.57 276.091 367.29 276.091C367.01 276.091 366.734 276.163 366.49 276.301L318.23 304.171C318.176 304.202 318.131 304.248 318.1 304.302C318.069 304.357 318.053 304.418 318.053 304.481C318.053 304.543 318.069 304.605 318.1 304.659C318.131 304.713 318.176 304.759 318.23 304.791L346.31 321.001L395.91 292.361Z" fill="#455A64"/>
<path d="M346.05 318.641L331.05 309.991L374.93 284.661L390.01 293.261L346.05 318.641Z" fill="#37474F"/>
<path d="M390.01 293.26L389.44 293.59L374.92 285.31L331.62 310.32L331.05 309.99L374.92 284.65L390.01 293.26Z" fill="#263238"/>
<path d="M338.68 294.57L338.96 294.73L346.31 298.97L359.39 291.42L359.66 291.26L352.03 286.86L338.68 294.57Z" fill="#263238"/>
<path d="M338.96 294.731L346.31 298.971L359.39 291.421L352.03 287.181L338.96 294.731Z" fill="#37474F"/>
<path d="M352.91 299.821C350.81 297.741 347.76 294.82 345.19 293.99C344.601 293.77 344 293.583 343.39 293.43C344.277 293.317 345.156 293.143 346.02 292.911C346.892 292.645 347.667 292.13 348.25 291.43C348.47 291.14 348.63 290.68 348.35 290.43C348.248 290.348 348.121 290.303 347.99 290.3C346.06 290.24 344.55 289.941 342.8 289.821C342.022 289.69 341.228 289.69 340.45 289.821C339.73 290.011 339.02 290.22 338.32 290.47C335.13 291.57 332.22 292.56 327.71 291.47L319.59 287.14C319.59 287.14 317.85 286.7 315.29 291.03C312.73 295.36 314.23 297.74 314.23 297.74L323.35 300.89L323.48 300.94C324.865 301.684 326.306 302.32 327.79 302.84C330.63 303.71 334.27 302.68 336.74 302.55C339.21 302.42 343.4 303.55 345.74 304.49C348.08 305.43 350.74 301.89 351.93 302.31C353.12 302.73 355.02 301.911 352.91 299.821Z" fill="#FFA8A7"/>
<path d="M342.32 292.07C341.13 292.03 339.945 292.237 338.84 292.68C340.386 292.757 341.918 293.022 343.4 293.47C344.287 293.357 345.166 293.183 346.03 292.95C346.787 292.704 347.473 292.279 348.03 291.71C346.66 292.61 343.99 292.24 342.32 292.07Z" fill="#F28F8F"/>
<path d="M298.24 222.301C300.55 223.211 303.56 232.851 301.7 242.121L297.4 271.121C297.4 271.121 302.67 274.241 310.07 278.821C315.19 282.001 319.58 284.911 319.59 287.261C316.23 288.461 313.21 294.641 314.23 297.861C311.94 300.581 290.78 288.861 283.38 283.791C279.95 281.441 278.22 280.521 279.54 269.931C281 258.211 282 245.191 284.29 236.501C286.67 227.411 289.32 223.891 298.24 222.301Z" fill="#649CFF"/>
<path opacity="0.7" d="M298.24 222.301C300.55 223.211 303.56 232.851 301.7 242.121L297.4 271.121C297.4 271.121 302.67 274.241 310.07 278.821C315.19 282.001 319.58 284.911 319.59 287.261C316.23 288.461 313.21 294.641 314.23 297.861C311.94 300.581 290.78 288.861 283.38 283.791C279.95 281.441 278.22 280.521 279.54 269.931C281 258.211 282 245.191 284.29 236.501C286.67 227.411 289.32 223.891 298.24 222.301Z" fill="white"/>
<path d="M347.07 321.4C347.512 321.572 347.986 321.643 348.459 321.606C348.932 321.57 349.39 321.428 349.8 321.19L396.52 294.19C396.924 293.957 397.272 293.636 397.538 293.253C397.805 292.869 397.983 292.431 398.06 291.97L403.18 261.47C403.195 261.297 403.195 261.123 403.18 260.95C403.182 260.53 403.099 260.114 402.938 259.726C402.776 259.338 402.539 258.986 402.24 258.69L353.7 286.69C353.399 286.862 353.14 287.098 352.942 287.382C352.743 287.665 352.609 287.989 352.55 288.33L347.07 321.4Z" fill="#37474F"/>
<path d="M346.31 321.001L346.63 321.191C346.772 321.271 346.919 321.341 347.07 321.401L352.59 288.401C352.649 288.059 352.783 287.735 352.982 287.452C353.18 287.168 353.439 286.932 353.74 286.76L402.28 258.76C402.086 258.567 401.867 258.399 401.63 258.26L352.99 286.351C352.689 286.521 352.431 286.757 352.234 287.041C352.036 287.325 351.905 287.649 351.85 287.991L346.31 321.001Z" fill="#455A64"/>
<path d="M353.05 287.37L352.29 286.94C352.065 287.234 351.914 287.577 351.85 287.94L346.31 320.99L346.63 321.18C346.772 321.26 346.919 321.331 347.07 321.39L352.59 288.39C352.662 288.019 352.819 287.67 353.05 287.37Z" fill="#263238"/>
<path d="M373.38 293.241C373.72 291.241 375.83 288.491 378.09 287.191C380.35 285.891 381.9 286.481 381.55 288.521C381.2 290.561 379.1 293.281 376.85 294.581C374.6 295.881 373.03 295.291 373.38 293.241Z" fill="#649CFF"/>
</svg>
